<svg xmlns="http://www.w3.org/2000/svg" xmlns:xlink="http://www.w3.org/1999/xlink" xmlns:lucid="lucid" width="2453.98" height="994.56"><g transform="translate(250.67037836250967 136.55313210139582)" lucid:page-tab-id="0_0"><path d="M-500-500h3000v1500H-500z" fill="#f2f3f5"/><path d="M502.52-116.55h300.53v72H502.53z" fill="none"/><use xlink:href="#a" transform="matrix(1,0,0,1,522.5248068226756,-93.55313210139582) translate(0 21.833333333333336)"/><use xlink:href="#b" transform="matrix(1,0,0,1,522.5248068226756,-93.55313210139582) translate(130.14814814814815 21.833333333333336)"/><use xlink:href="#c" transform="matrix(1,0,0,1,522.5248068226756,-93.55313210139582) translate(152.37037037037038 21.833333333333336)"/><path d="M169.33-116.55h173.2v72h-173.2z" fill="none"/><use xlink:href="#d" transform="matrix(1,0,0,1,189.32962163749033,-93.55313210139582) translate(0 21.833333333333336)"/><use xlink:href="#e" transform="matrix(1,0,0,1,189.32962163749033,-93.55313210139582) translate(90.22222222222223 21.833333333333336)"/><path d="M963.05-116.55h96.16v72h-96.15z" fill="none"/><use xlink:href="#f" transform="matrix(1,0,0,1,983.0533253411941,-93.55313210139582) translate(0 21.833333333333336)"/><path d="M971.85 72.52l4.9.1 6.6.4 5.97.64 5.46.8 5.08.97 4.78 1.12 4.58 1.28 4.45 1.44 4.4 1.65 4.5 1.88 4.73 2.23 5.33 2.8 7.02 4.06 26.42 16.2 5.33 2.8 4.73 2.24 4.5 1.88 4.4 1.65 4.45 1.44 4.58 1.3 4.78 1.1 5.08.98 5.46.8 5.96.63 6.6.42 4.9.1" stroke="#fc9432" stroke-width="5" stroke-linejoin="round" fill="none"/><path d="M971.97 70.05l-.1 4.94-2.52-.06V70zM1129.35 121v4.95h-2.56V121z" stroke="#fc9432" stroke-width=".05" fill="#fc9432"/><path d="M358.3 72.47h154.98" stroke="#fc9432" stroke-width="5" stroke-linejoin="round" fill="none"/><path d="M358.35 74.94h-2.57V70h2.57zM515.78 74.94h-2.56V70h2.56z" stroke="#fc9432" stroke-width=".05" fill="#fc9432"/><path d="M11.83-4l2.54.06 4.66.3 4.34.45 4.08.6 3.87.75 3.7.87 3.54 1L42 1.1l3.37 1.26 3.32 1.4L52 5.33l3.35 1.74 3.42 1.98 3.57 2.26 3.8 2.66 4.26 3.22 5.12 4.25 8.07 7.3 19.54 18.22 5.12 4.25 4.25 3.23 3.82 2.65 3.57 2.27 3.4 1.97 3.35 1.75 3.3 1.55 3.34 1.4 3.36 1.25 3.44 1.12 3.55 1 3.7.86 3.86.73 4.1.6 4.33.47 4.66.3 2.53.05" stroke="#fc9432" stroke-width="5" stroke-linejoin="round" fill="none"/><path d="M11.95-6.46l-.1 4.95-2.7-.07.18-2.47-.2-2.48zM169.33 70v4.94h-2.57V70z" stroke="#fc9432" stroke-width=".05" fill="#fc9432"/><path d="M805.56-80.55h155" stroke="#ffe342" stroke-width="5" stroke-linejoin="round" fill="none"/><path d="M805.62-78.07h-2.57v-4.95h2.57zM963.05-78.07h-2.56v-4.95h2.55z" stroke="#ffe342" stroke-width=".05" fill="#ffe342"/><path d="M169.33 36.46h186.45v72H169.33z" fill="none"/><use xlink:href="#g" transform="matrix(1,0,0,1,189.32962163749033,59.46186789860417) translate(0 21.833333333333336)"/><use xlink:href="#h" transform="matrix(1,0,0,1,189.32962163749033,59.46186789860417) translate(32.592592592592595 21.833333333333336)"/><path d="M-230.67-4.04a40 40 0 0 1 40-40h160a40 40 0 0 1 40 40 40 40 0 0 1-40 40h-160a40 40 0 0 1-40-40z" fill="#fff"/><use xlink:href="#i" transform="matrix(1,0,0,1,-230.67037836250967,-44.04063210139583) translate(66.33333333333333 45.333333333333336)"/><path d="M1129.35 87.47h300.53v72h-300.53z" fill="none"/><use xlink:href="#a" transform="matrix(1,0,0,1,1149.3496216374904,110.46686789860416) translate(0 21.833333333333336)"/><use xlink:href="#j" transform="matrix(1,0,0,1,1149.3496216374904,110.46686789860416) translate(130.14814814814815 21.833333333333336)"/><use xlink:href="#c" transform="matrix(1,0,0,1,1149.3496216374904,110.46686789860416) translate(152.37037037037038 21.833333333333336)"/><path d="M1129.35-14.54h300.53v72h-300.53z" fill="none"/><use xlink:href="#a" transform="matrix(1,0,0,1,1149.3496216374904,8.456867898604173) translate(0 21.833333333333336)"/><use xlink:href="#b" transform="matrix(1,0,0,1,1149.3496216374904,8.456867898604173) translate(130.14814814814815 21.833333333333336)"/><use xlink:href="#c" transform="matrix(1,0,0,1,1149.3496216374904,8.456867898604173) translate(152.37037037037038 21.833333333333336)"/><path d="M345.03-80.55h155" stroke="#ffe342" stroke-width="5" stroke-linejoin="round" fill="none"/><path d="M345.1-78.07h-2.58v-4.95h2.57zM502.52-78.07h-2.56v-4.95h2.56z" stroke="#ffe342" stroke-width=".05" fill="#ffe342"/><path d="M515.78 36.46h453.57v72H515.78z" fill="none"/><use xlink:href="#k" transform="matrix(1,0,0,1,535.7840660819347,59.46186789860417) translate(0 21.833333333333336)"/><use xlink:href="#l" transform="matrix(1,0,0,1,535.7840660819347,59.46186789860417) translate(88.22222222222223 21.833333333333336)"/><use xlink:href="#m" transform="matrix(1,0,0,1,535.7840660819347,59.46186789860417) translate(173.92592592592592 21.833333333333336)"/><use xlink:href="#n" transform="matrix(1,0,0,1,535.7840660819347,59.46186789860417) translate(278.8888888888889 21.833333333333336)"/><path d="M11.83-4.1l2.54-.04 4.66-.3 4.34-.45 4.08-.6 3.87-.73 3.7-.87 3.54-1L42-9.2l3.37-1.26 3.32-1.4 3.3-1.56 3.35-1.74 3.42-1.98 3.57-2.26 3.8-2.66 4.26-3.23 5.12-4.23 8.07-7.3 19.54-18.23 5.12-4.24 4.25-3.23 3.82-2.65 3.57-2.27 3.4-1.97 3.35-1.75 3.3-1.56 3.34-1.4 3.36-1.25 3.44-1.12 3.55-1 3.7-.86 3.86-.73 4.1-.6 4.33-.45 4.66-.3 2.53-.05" stroke="#ffe342" stroke-width="5" stroke-linejoin="round" fill="none"/><path d="M11.95-1.62l-2.82.06.2-2.48-.2-2.47 2.7-.07zM169.33-78.07h-2.56v-4.95h2.56z" stroke="#ffe342" stroke-width=".05" fill="#ffe342"/><path d="M971.85 72.42l4.9-.1 6.6-.42 5.97-.62 5.46-.8 5.08-.98 4.78-1.12 4.58-1.27 4.45-1.44 4.4-1.64 4.5-1.9 4.73-2.22 5.33-2.8 7.02-4.06 26.42-16.22 5.33-2.8 4.73-2.22 4.5-1.9 4.4-1.63 4.45-1.45 4.58-1.27 4.78-1.13 5.08-.96 5.46-.8 5.96-.63 6.6-.42 4.9-.1" stroke="#fc9432" stroke-width="5" stroke-linejoin="round" fill="none"/><path d="M971.97 74.9l-2.62.04V70l2.5-.06zM1129.35 23.94h-2.56V19h2.55z" stroke="#fc9432" stroke-width=".05" fill="#fc9432"/><path d="M502.52-116.55h300.53v72H502.53z" fill="none"/><use xlink:href="#a" transform="matrix(1,0,0,1,522.5248068226756,-93.55313210139582) translate(0 21.833333333333336)"/><use xlink:href="#b" transform="matrix(1,0,0,1,522.5248068226756,-93.55313210139582) translate(130.14814814814815 21.833333333333336)"/><use xlink:href="#c" transform="matrix(1,0,0,1,522.5248068226756,-93.55313210139582) translate(152.37037037037038 21.833333333333336)"/><path d="M169.33-116.55h173.2v72h-173.2z" fill="none"/><use xlink:href="#d" transform="matrix(1,0,0,1,189.32962163749033,-93.55313210139582) translate(0 21.833333333333336)"/><use xlink:href="#e" transform="matrix(1,0,0,1,189.32962163749033,-93.55313210139582) translate(90.22222222222223 21.833333333333336)"/><path d="M963.05-116.55h96.16v72h-96.15z" fill="none"/><use xlink:href="#f" transform="matrix(1,0,0,1,983.0533253411941,-93.55313210139582) translate(0 21.833333333333336)"/><path d="M971.85 72.52l4.9.1 6.6.4 5.97.64 5.46.8 5.08.97 4.78 1.12 4.58 1.28 4.45 1.44 4.4 1.65 4.5 1.88 4.73 2.23 5.33 2.8 7.02 4.06 26.42 16.2 5.33 2.8 4.73 2.24 4.5 1.88 4.4 1.65 4.45 1.44 4.58 1.3 4.78 1.1 5.08.98 5.46.8 5.96.63 6.6.42 4.9.1" stroke="#fc9432" stroke-width="5" stroke-linejoin="round" fill="none"/><path d="M971.97 70.05l-.1 4.94-2.52-.06V70zM1129.35 121v4.95h-2.56V121z" stroke="#fc9432" stroke-width=".05" fill="#fc9432"/><path d="M358.3 72.47h154.98" stroke="#fc9432" stroke-width="5" stroke-linejoin="round" fill="none"/><path d="M358.35 74.94h-2.57V70h2.57zM515.78 74.94h-2.56V70h2.56z" stroke="#fc9432" stroke-width=".05" fill="#fc9432"/><path d="M11.83-4l2.54.06 4.66.3 4.34.45 4.08.6 3.87.75 3.7.87 3.54 1L42 1.1l3.37 1.26 3.32 1.4L52 5.33l3.35 1.74 3.42 1.98 3.57 2.26 3.8 2.66 4.26 3.22 5.12 4.25 8.07 7.3 19.54 18.22 5.12 4.25 4.25 3.23 3.82 2.65 3.57 2.27 3.4 1.97 3.35 1.75 3.3 1.55 3.34 1.4 3.36 1.25 3.44 1.12 3.55 1 3.7.86 3.86.73 4.1.6 4.33.47 4.66.3 2.53.05" stroke="#fc9432" stroke-width="5" stroke-linejoin="round" fill="none"/><path d="M11.95-6.46l-.1 4.95-2.7-.07.18-2.47-.2-2.48zM169.33 70v4.94h-2.57V70z" stroke="#fc9432" stroke-width=".05" fill="#fc9432"/><path d="M805.56-80.55h155" stroke="#ffe342" stroke-width="5" stroke-linejoin="round" fill="none"/><path d="M805.62-78.07h-2.57v-4.95h2.57zM963.05-78.07h-2.56v-4.95h2.55z" stroke="#ffe342" stroke-width=".05" fill="#ffe342"/><path d="M169.33 36.46h186.45v72H169.33z" fill="none"/><use xlink:href="#g" transform="matrix(1,0,0,1,189.32962163749033,59.46186789860417) translate(0 21.833333333333336)"/><use xlink:href="#h" transform="matrix(1,0,0,1,189.32962163749033,59.46186789860417) translate(32.592592592592595 21.833333333333336)"/><path d="M-230.67-4.04a40 40 0 0 1 40-40h160a40 40 0 0 1 40 40 40 40 0 0 1-40 40h-160a40 40 0 0 1-40-40z" fill="#fff"/><use xlink:href="#i" transform="matrix(1,0,0,1,-230.67037836250967,-44.04063210139583) translate(66.33333333333333 45.333333333333336)"/><path d="M1129.35 87.47h300.53v72h-300.53z" fill="none"/><use xlink:href="#a" transform="matrix(1,0,0,1,1149.3496216374904,110.46686789860416) translate(0 21.833333333333336)"/><use xlink:href="#j" transform="matrix(1,0,0,1,1149.3496216374904,110.46686789860416) translate(130.14814814814815 21.833333333333336)"/><use xlink:href="#c" transform="matrix(1,0,0,1,1149.3496216374904,110.46686789860416) translate(152.37037037037038 21.833333333333336)"/><path d="M1129.35-14.54h300.53v72h-300.53z" fill="none"/><use xlink:href="#a" transform="matrix(1,0,0,1,1149.3496216374904,8.456867898604173) translate(0 21.833333333333336)"/><use xlink:href="#b" transform="matrix(1,0,0,1,1149.3496216374904,8.456867898604173) translate(130.14814814814815 21.833333333333336)"/><use xlink:href="#c" transform="matrix(1,0,0,1,1149.3496216374904,8.456867898604173) translate(152.37037037037038 21.833333333333336)"/><path d="M345.03-80.55h155" stroke="#ffe342" stroke-width="5" stroke-linejoin="round" fill="none"/><path d="M345.1-78.07h-2.58v-4.95h2.57zM502.52-78.07h-2.56v-4.95h2.56z" stroke="#ffe342" stroke-width=".05" fill="#ffe342"/><path d="M515.78 36.46h453.57v72H515.78z" fill="none"/><use xlink:href="#k" transform="matrix(1,0,0,1,535.7840660819347,59.46186789860417) translate(0 21.833333333333336)"/><use xlink:href="#l" transform="matrix(1,0,0,1,535.7840660819347,59.46186789860417) translate(88.22222222222223 21.833333333333336)"/><use xlink:href="#m" transform="matrix(1,0,0,1,535.7840660819347,59.46186789860417) translate(173.92592592592592 21.833333333333336)"/><use xlink:href="#n" transform="matrix(1,0,0,1,535.7840660819347,59.46186789860417) translate(278.8888888888889 21.833333333333336)"/><path d="M11.83-4.1l2.54-.04 4.66-.3 4.34-.45 4.08-.6 3.87-.73 3.7-.87 3.54-1L42-9.2l3.37-1.26 3.32-1.4 3.3-1.56 3.35-1.74 3.42-1.98 3.57-2.26 3.8-2.66 4.26-3.23 5.12-4.23 8.07-7.3 19.54-18.23 5.12-4.24 4.25-3.23 3.82-2.65 3.57-2.27 3.4-1.97 3.35-1.75 3.3-1.56 3.34-1.4 3.36-1.25 3.44-1.12 3.55-1 3.7-.86 3.86-.73 4.1-.6 4.33-.45 4.66-.3 2.53-.05" stroke="#ffe342" stroke-width="5" stroke-linejoin="round" fill="none"/><path d="M11.95-1.62l-2.82.06.2-2.48-.2-2.47 2.7-.07zM169.33-78.07h-2.56v-4.95h2.56z" stroke="#ffe342" stroke-width=".05" fill="#ffe342"/><path d="M971.85 72.42l4.9-.1 6.6-.42 5.97-.62 5.46-.8 5.08-.98 4.78-1.12 4.58-1.27 4.45-1.44 4.4-1.64 4.5-1.9 4.73-2.22 5.33-2.8 7.02-4.06 26.42-16.22 5.33-2.8 4.73-2.22 4.5-1.9 4.4-1.63 4.45-1.45 4.58-1.27 4.78-1.13 5.08-.96 5.46-.8 5.96-.63 6.6-.42 4.9-.1" stroke="#fc9432" stroke-width="5" stroke-linejoin="round" fill="none"/><path d="M971.97 74.9l-2.62.04V70l2.5-.06zM1129.35 23.94h-2.56V19h2.55z" stroke="#fc9432" stroke-width=".05" fill="#fc9432"/><path d="M1882.78 504.48h300.53v72H1882.8z" fill="none"/><use xlink:href="#a" transform="matrix(1,0,0,1,1902.7782023360187,527.4768678986042) translate(0 21.833333333333336)"/><use xlink:href="#j" transform="matrix(1,0,0,1,1902.7782023360187,527.4768678986042) translate(130.14814814814815 21.833333333333336)"/><use xlink:href="#c" transform="matrix(1,0,0,1,1902.7782023360187,527.4768678986042) translate(152.37037037037038 21.833333333333336)"/><path d="M1717.78 72.47a40 40 0 0 1 40-40h160a40 40 0 0 1 40 40 40 40 0 0 1-40 40h-160a40 40 0 0 1-40-40z" fill="#fff"/><use xlink:href="#o" transform="matrix(1,0,0,1,1717.7782023360187,32.466867898604164) translate(33.40740740740742 45.333333333333336)"/><use xlink:href="#p" transform="matrix(1,0,0,1,1717.7782023360187,32.466867898604164) translate(126.66666666666667 45.333333333333336)"/><path d="M1716.37 272.47h242.82v72h-242.83z" fill="none"/><use xlink:href="#q" transform="matrix(1,0,0,1,1736.3657949286112,295.46686789860416) translate(0 21.833333333333336)"/><use xlink:href="#p" transform="matrix(1,0,0,1,1736.3657949286112,295.46686789860416) translate(122.88888888888887 21.833333333333336)"/><path d="M1492.25 504.48h300.53v72h-300.53z" fill="none"/><use xlink:href="#a" transform="matrix(1,0,0,1,1512.2496838175,527.4768678986042) translate(0 21.833333333333336)"/><use xlink:href="#b" transform="matrix(1,0,0,1,1512.2496838175,527.4768678986042) translate(130.14814814814815 21.833333333333336)"/><use xlink:href="#c" transform="matrix(1,0,0,1,1512.2496838175,527.4768678986042) translate(152.37037037037038 21.833333333333336)"/><path d="M1837.85 346.98l.1 1.5.2 1.9.27 1.88.35 1.84.43 1.82.5 1.8.58 1.8.67 1.78.75 1.8.85 1.8.95 1.8 1.07 1.86 1.2 1.88 1.34 1.94 1.52 1.98 1.7 2.06 1.93 2.14 2.2 2.25 2.53 2.38 2.92 2.52 3.43 2.7 4.07 2.96 4.93 3.28 6.15 3.7 8 4.4 11.33 5.6 21.13 9.33 54.1 22.94 11.3 5.6 8 4.4 6.16 3.72 4.92 3.27 4.07 2.94 3.42 2.72 2.92 2.52 2.53 2.37 2.2 2.24 1.93 2.13 1.7 2.06 1.5 1.98 1.35 1.93 1.2 1.9 1.07 1.84.95 1.82.85 1.8.75 1.8.67 1.78.58 1.8.5 1.8.43 1.8.35 1.85.27 1.87.2 1.9.1 1.5" stroke="#635dff" stroke-width="5" stroke-linejoin="round" fill="none"/><path d="M1840.3 347l-4.94.1-.06-2.62h4.95zM2035.52 504.48h-4.95v-2.57h4.95z" stroke="#635dff" stroke-width=".05" fill="#635dff"/><path d="M1837.78 114.97v155" stroke="#635dff" stroke-width="5" stroke-linejoin="round" fill="none"/><path d="M1840.25 115.03h-4.95v-2.56h4.95zM1840.25 272.47h-4.95v-2.57h4.95z" stroke="#635dff" stroke-width=".05" fill="#635dff"/><path d="M1837.7 346.98l-.1 1.5-.2 1.9-.27 1.88-.35 1.84-.42 1.82-.5 1.8-.6 1.8-.65 1.78-.74 1.8-.85 1.8-.95 1.8-1.06 1.86-1.2 1.88-1.35 1.94-1.5 1.98-1.72 2.06-1.93 2.14-2.2 2.25-2.52 2.38-2.92 2.52-3.43 2.7-4.07 2.96-4.94 3.28-6.14 3.7-8 4.4-11.33 5.6-21.12 9.33-54.1 22.94-11.3 5.6-8 4.4-6.16 3.72-4.94 3.27-4.07 2.94-3.42 2.72-2.93 2.52-2.5 2.37-2.2 2.24-1.94 2.13-1.7 2.06-1.5 1.98-1.36 1.93-1.2 1.9-1.06 1.84-.95 1.82-.86 1.8-.76 1.8-.66 1.78-.58 1.8-.5 1.8-.43 1.8-.34 1.85-.28 1.87-.2 1.9-.1 1.5" stroke="#635dff" stroke-width="5" stroke-linejoin="round" fill="none"/><path d="M1840.2 347.1l-4.95-.1.05-2.52h4.95zM1645 501.9v2.58h-4.96v-2.57z" stroke="#635dff" stroke-width=".05" fill="#635dff"/><path d="M1882.78 504.48h300.53v72H1882.8z" fill="none"/><use xlink:href="#a" transform="matrix(1,0,0,1,1902.7782023360187,527.4768678986042) translate(0 21.833333333333336)"/><use xlink:href="#j" transform="matrix(1,0,0,1,1902.7782023360187,527.4768678986042) translate(130.14814814814815 21.833333333333336)"/><use xlink:href="#c" transform="matrix(1,0,0,1,1902.7782023360187,527.4768678986042) translate(152.37037037037038 21.833333333333336)"/><path d="M1717.78 72.47a40 40 0 0 1 40-40h160a40 40 0 0 1 40 40 40 40 0 0 1-40 40h-160a40 40 0 0 1-40-40z" fill="#fff"/><use xlink:href="#o" transform="matrix(1,0,0,1,1717.7782023360187,32.466867898604164) translate(33.40740740740742 45.333333333333336)"/><use xlink:href="#p" transform="matrix(1,0,0,1,1717.7782023360187,32.466867898604164) translate(126.66666666666667 45.333333333333336)"/><path d="M1716.37 272.47h242.82v72h-242.83z" fill="none"/><use xlink:href="#q" transform="matrix(1,0,0,1,1736.3657949286112,295.46686789860416) translate(0 21.833333333333336)"/><use xlink:href="#p" transform="matrix(1,0,0,1,1736.3657949286112,295.46686789860416) translate(122.88888888888887 21.833333333333336)"/><path d="M1492.25 504.48h300.53v72h-300.53z" fill="none"/><use xlink:href="#a" transform="matrix(1,0,0,1,1512.2496838175,527.4768678986042) translate(0 21.833333333333336)"/><use xlink:href="#b" transform="matrix(1,0,0,1,1512.2496838175,527.4768678986042) translate(130.14814814814815 21.833333333333336)"/><use xlink:href="#c" transform="matrix(1,0,0,1,1512.2496838175,527.4768678986042) translate(152.37037037037038 21.833333333333336)"/><path d="M1837.85 346.98l.1 1.5.2 1.9.27 1.88.35 1.84.43 1.82.5 1.8.58 1.8.67 1.78.75 1.8.85 1.8.95 1.8 1.07 1.86 1.2 1.88 1.34 1.94 1.52 1.98 1.7 2.06 1.93 2.14 2.2 2.25 2.53 2.38 2.92 2.52 3.43 2.7 4.07 2.96 4.93 3.28 6.15 3.7 8 4.4 11.33 5.6 21.13 9.33 54.1 22.94 11.3 5.6 8 4.4 6.16 3.72 4.92 3.27 4.07 2.94 3.42 2.72 2.92 2.52 2.53 2.37 2.2 2.24 1.93 2.13 1.7 2.06 1.5 1.98 1.35 1.93 1.2 1.9 1.07 1.84.95 1.82.85 1.8.75 1.8.67 1.78.58 1.8.5 1.8.43 1.8.35 1.85.27 1.87.2 1.9.1 1.5" stroke="#635dff" stroke-width="5" stroke-linejoin="round" fill="none"/><path d="M1840.3 347l-4.94.1-.06-2.62h4.95zM2035.52 504.48h-4.95v-2.57h4.95z" stroke="#635dff" stroke-width=".05" fill="#635dff"/><path d="M1837.78 114.97v155" stroke="#635dff" stroke-width="5" stroke-linejoin="round" fill="none"/><path d="M1840.25 115.03h-4.95v-2.56h4.95zM1840.25 272.47h-4.95v-2.57h4.95z" stroke="#635dff" stroke-width=".05" fill="#635dff"/><path d="M1837.7 346.98l-.1 1.5-.2 1.9-.27 1.88-.35 1.84-.42 1.82-.5 1.8-.6 1.8-.65 1.78-.74 1.8-.85 1.8-.95 1.8-1.06 1.86-1.2 1.88-1.35 1.94-1.5 1.98-1.72 2.06-1.93 2.14-2.2 2.25-2.52 2.38-2.92 2.52-3.43 2.7-4.07 2.96-4.94 3.28-6.14 3.7-8 4.4-11.33 5.6-21.12 9.33-54.1 22.94-11.3 5.6-8 4.4-6.16 3.72-4.94 3.27-4.07 2.94-3.42 2.72-2.93 2.52-2.5 2.37-2.2 2.24-1.94 2.13-1.7 2.06-1.5 1.98-1.36 1.93-1.2 1.9-1.06 1.84-.95 1.82-.86 1.8-.76 1.8-.66 1.78-.58 1.8-.5 1.8-.43 1.8-.34 1.85-.28 1.87-.2 1.9-.1 1.5" stroke="#635dff" stroke-width="5" stroke-linejoin="round" fill="none"/><path d="M1840.2 347.1l-4.95-.1.05-2.52h4.95zM1645 501.9v2.58h-4.96v-2.57z" stroke="#635dff" stroke-width=".05" fill="#635dff"/><path d="M1432.38 21.5l20.4.42 18.83 1.18 16.12 1.68 14.32 2.1 13.3 2.55 13.06 3.06 14.1 3.94 21.26 6.98 41.4 14.07 14.1 3.94 13.06 3.06 13.3 2.53 14.32 2.1 16.1 1.7L1694.9 72l20.4.42" stroke="#e08fff" stroke-width="5" stroke-linejoin="round" fill="none"/><path d="M1432.5 19.04l-.1 4.95-2.52-.06V19zM1717.97 70l-.2 2.47.2 2.47h-2.76V70z" stroke="#e08fff" stroke-width=".05" fill="#e08fff"/><path d="M1432.38 123.42l20.4-.4 18.83-1.18 16.12-1.7 14.32-2.1 13.3-2.54 13.06-3.06 14.1-3.95 21.26-6.98 41.4-14.07 14.1-3.95 13.06-3.07 13.3-2.53 14.32-2.1 16.1-1.7 18.84-1.17 20.4-.4" stroke="#e08fff" stroke-width="5" stroke-linejoin="round" fill="none"/><path d="M1432.5 125.9l-2.62.05V121l2.52-.05zM1717.78 72.47l.2 2.47h-2.77V70h2.77z" stroke="#e08fff" stroke-width=".05" fill="#e08fff"/><path d="M1386.62 762h96.15v72h-96.15z" fill="none"/><g><use xlink:href="#f" transform="matrix(1,0,0,1,1406.6150541878706,784.9977962572485) translate(0 21.833333333333336)"/></g><path d="M1642.77 798a40 40 0 0 1 40-40h310a40 40 0 0 1 40 40 40 40 0 0 1-40 40h-310a40 40 0 0 1-40-40z" fill="#fff"/><g><use xlink:href="#r" transform="matrix(1,0,0,1,1642.7732023360186,758.0027962572485) translate(16.5 45.333333333333336)"/><use xlink:href="#s" transform="matrix(1,0,0,1,1642.7732023360186,758.0027962572485) translate(80.12962962962963 45.333333333333336)"/><use xlink:href="#t" transform="matrix(1,0,0,1,1642.7732023360186,758.0027962572485) translate(198.42592592592592 45.333333333333336)"/><use xlink:href="#u" transform="matrix(1,0,0,1,1642.7732023360186,758.0027962572485) translate(250.27777777777777 45.333333333333336)"/></g><path d="M1640.27 798h-155" stroke="#635dff" stroke-width="5" stroke-linejoin="round" fill="none"/><path d="M1642.77 798l.2 2.48h-2.76v-4.95h2.77zM1485.34 800.48h-2.57v-4.95h2.57z" stroke="#635dff" stroke-width=".05" fill="#635dff"/><path d="M1386.62 762h96.15v72h-96.15z" fill="none"/><g><use xlink:href="#f" transform="matrix(1,0,0,1,1406.6150541878706,784.9977962572485) translate(0 21.833333333333336)"/></g><path d="M1642.77 798a40 40 0 0 1 40-40h310a40 40 0 0 1 40 40 40 40 0 0 1-40 40h-310a40 40 0 0 1-40-40z" fill="#fff"/><g><use xlink:href="#r" transform="matrix(1,0,0,1,1642.7732023360186,758.0027962572485) translate(16.5 45.333333333333336)"/><use xlink:href="#s" transform="matrix(1,0,0,1,1642.7732023360186,758.0027962572485) translate(80.12962962962963 45.333333333333336)"/><use xlink:href="#t" transform="matrix(1,0,0,1,1642.7732023360186,758.0027962572485) translate(198.42592592592592 45.333333333333336)"/><use xlink:href="#u" transform="matrix(1,0,0,1,1642.7732023360186,758.0027962572485) translate(250.27777777777777 45.333333333333336)"/></g><path d="M1640.27 798h-155" stroke="#635dff" stroke-width="5" stroke-linejoin="round" fill="none"/><path d="M1642.77 798l.2 2.48h-2.76v-4.95h2.77zM1485.34 800.48h-2.57v-4.95h2.57z" stroke="#635dff" stroke-width=".05" fill="#635dff"/><path d="M1633.33 579l.15 2.38.24 2.34.34 2.28.43 2.24.5 2.2.6 2.18.7 2.16.8 2.15.92 2.16 1.02 2.15 1.14 2.18 1.28 2.22 1.43 2.25 1.6 2.3 1.8 2.37 2.02 2.46 2.3 2.55 2.63 2.68 3 2.82 3.5 3.02 4.12 3.26 4.92 3.57 6.02 4 7.66 4.63 10.4 5.7 16.68 8.24 68.6 31.73 10.4 5.7 7.67 4.63 6.03 4 4.92 3.57 4.12 3.26 3.5 3 3 2.83 2.63 2.68 2.3 2.56 2.03 2.45 1.8 2.4 1.6 2.3 1.43 2.25 1.27 2.2 1.14 2.2 1.03 2.15.9 2.16.8 2.15.7 2.17.62 2.18.52 2.2.42 2.24.33 2.27.25 2.34.15 2.4" stroke="#00c2a8" stroke-width="5" stroke-linejoin="round" fill="none"/><path d="M1635.8 579l-4.95.1-.05-2.6h4.95zM1840.25 758h-4.95v-2.56h4.95z" stroke="#00c2a8" stroke-width=".05" fill="#00c2a8"/><path d="M1837.83 755.5v-.1l.16-2.5.25-2.45.35-2.38.44-2.33.54-2.3.63-2.24.74-2.24.83-2.23.93-2.23 1.05-2.23 1.18-2.25 1.32-2.28 1.47-2.32 1.65-2.38 1.86-2.44 2.08-2.52 2.38-2.63 2.7-2.75 3.1-2.92 3.62-3.1 4.26-3.4 5.13-3.7 6.32-4.2 8.2-4.97 11.6-6.35 23.37-11.47 46.2-22.15 11.6-6.35 8.2-4.96 6.34-4.2 5.12-3.72 4.26-3.38 3.6-3.1 3.12-2.93 2.7-2.76 2.37-2.63 2.1-2.5 1.85-2.45 1.65-2.38 1.47-2.32 1.32-2.28 1.17-2.25 1.05-2.24.94-2.22.82-2.23.73-2.24.64-2.26.54-2.3.44-2.32.35-2.38.26-2.43.16-2.5v-.1" stroke="#00c2a8" stroke-width="5" stroke-linejoin="round" fill="none"/><path d="M1840.3 755.5l-.05 2.5h-4.95l.06-2.62zM2035.52 579.05h-4.95v-2.56h4.95z" stroke="#00c2a8" stroke-width=".05" fill="#00c2a8"/><defs><path d="M212-179c-10-28-35-45-73-45-59 0-87 40-87 99 0 60 29 101 89 101 43 0 62-24 78-52l27 14C228-24 195 4 139 4 59 4 22-46 18-125c-6-104 99-153 187-111 19 9 31 26 39 46" id="v"/><path d="M100-194c62-1 85 37 85 99 1 63-27 99-86 99S16-35 15-95c0-66 28-99 85-99zM99-20c44 1 53-31 53-75 0-43-8-75-51-75s-53 32-53 75 10 74 51 75" id="w"/><path d="M210-169c-67 3-38 105-44 169h-31v-121c0-29-5-50-35-48C34-165 62-65 56 0H25l-1-190h30c1 10-1 24 2 32 10-44 99-50 107 0 11-21 27-35 58-36 85-2 47 119 55 194h-31v-121c0-29-5-49-35-48" id="x"/><path d="M141-36C126-15 110 5 73 4 37 3 15-17 15-53c-1-64 63-63 125-63 3-35-9-54-41-54-24 1-41 7-42 31l-33-3c5-37 33-52 76-52 45 0 72 20 72 64v82c-1 20 7 32 28 27v20c-31 9-61-2-59-35zM48-53c0 20 12 33 32 33 41-3 63-29 60-74-43 2-92-5-92 41" id="y"/><path d="M117-194c89-4 53 116 60 194h-32v-121c0-31-8-49-39-48C34-167 62-67 57 0H25l-1-190h30c1 10-1 24 2 32 11-22 29-35 61-36" id="z"/><path d="M85-194c31 0 48 13 60 33l-1-100h32l1 261h-30c-2-10 0-23-3-31C134-8 116 4 85 4 32 4 16-35 15-94c0-66 23-100 70-100zm9 24c-40 0-46 34-46 75 0 40 6 74 45 74 42 0 51-32 51-76 0-42-9-74-50-73" id="A"/><g id="a"><use transform="matrix(0.07407407407407408,0,0,0.07407407407407408,0,0)" xlink:href="#v"/><use transform="matrix(0.07407407407407408,0,0,0.07407407407407408,19.185185185185187,0)" xlink:href="#w"/><use transform="matrix(0.07407407407407408,0,0,0.07407407407407408,34,0)" xlink:href="#x"/><use transform="matrix(0.07407407407407408,0,0,0.07407407407407408,56.14814814814815,0)" xlink:href="#x"/><use transform="matrix(0.07407407407407408,0,0,0.07407407407407408,78.2962962962963,0)" xlink:href="#y"/><use transform="matrix(0.07407407407407408,0,0,0.07407407407407408,93.1111111111111,0)" xlink:href="#z"/><use transform="matrix(0.07407407407407408,0,0,0.07407407407407408,107.92592592592592,0)" xlink:href="#A"/></g><path d="M27 0v-27h64v-190l-56 39v-29l58-41h29v221h61V0H27" id="B"/><use transform="matrix(0.07407407407407408,0,0,0.07407407407407408,0,0)" xlink:href="#B" id="b"/><path d="M100-194c63 0 86 42 84 106H49c0 40 14 67 53 68 26 1 43-12 49-29l28 8c-11 28-37 45-77 45C44 4 14-33 15-96c1-61 26-98 85-98zm52 81c6-60-76-77-97-28-3 7-6 17-6 28h103" id="C"/><path d="M141 0L90-78 38 0H4l68-98-65-92h35l48 74 47-74h35l-64 92 68 98h-35" id="D"/><path d="M96-169c-40 0-48 33-48 73s9 75 48 75c24 0 41-14 43-38l32 2c-6 37-31 61-74 61-59 0-76-41-82-99-10-93 101-131 147-64 4 7 5 14 7 22l-32 3c-4-21-16-35-41-35" id="E"/><path d="M84 4C-5 8 30-112 23-190h32v120c0 31 7 50 39 49 72-2 45-101 50-169h31l1 190h-30c-1-10 1-25-2-33-11 22-28 36-60 37" id="F"/><path d="M59-47c-2 24 18 29 38 22v24C64 9 27 4 27-40v-127H5v-23h24l9-43h21v43h35v23H59v120" id="G"/><g id="c"><use transform="matrix(0.07407407407407408,0,0,0.07407407407407408,0,0)" xlink:href="#C"/><use transform="matrix(0.07407407407407408,0,0,0.07407407407407408,14.814814814814817,0)" xlink:href="#D"/><use transform="matrix(0.07407407407407408,0,0,0.07407407407407408,28.148148148148152,0)" xlink:href="#C"/><use transform="matrix(0.07407407407407408,0,0,0.07407407407407408,42.96296296296297,0)" xlink:href="#E"/><use transform="matrix(0.07407407407407408,0,0,0.07407407407407408,56.296296296296305,0)" xlink:href="#F"/><use transform="matrix(0.07407407407407408,0,0,0.07407407407407408,71.11111111111111,0)" xlink:href="#G"/><use transform="matrix(0.07407407407407408,0,0,0.07407407407407408,78.51851851851852,0)" xlink:href="#C"/><use transform="matrix(0.07407407407407408,0,0,0.07407407407407408,93.33333333333334,0)" xlink:href="#A"/></g><path d="M190 0L58-211 59 0H30v-248h39L202-35l-2-213h31V0h-41" id="H"/><path d="M16-82v-28h88v28H16" id="I"/><path d="M205 0l-28-72H64L36 0H1l101-248h38L239 0h-34zm-38-99l-47-123c-12 45-31 82-46 123h93" id="J"/><path d="M33 0v-248h34V0H33" id="K"/><g id="d"><use transform="matrix(0.07407407407407408,0,0,0.07407407407407408,0,0)" xlink:href="#H"/><use transform="matrix(0.07407407407407408,0,0,0.07407407407407408,19.185185185185187,0)" xlink:href="#w"/><use transform="matrix(0.07407407407407408,0,0,0.07407407407407408,34,0)" xlink:href="#z"/><use transform="matrix(0.07407407407407408,0,0,0.07407407407407408,48.81481481481481,0)" xlink:href="#I"/><use transform="matrix(0.07407407407407408,0,0,0.07407407407407408,57.62962962962964,0)" xlink:href="#J"/><use transform="matrix(0.07407407407407408,0,0,0.07407407407407408,75.40740740740742,0)" xlink:href="#K"/></g><path d="M135-143c-3-34-86-38-87 0 15 53 115 12 119 90S17 21 10-45l28-5c4 36 97 45 98 0-10-56-113-15-118-90-4-57 82-63 122-42 12 7 21 19 24 35" id="L"/><g id="e"><use transform="matrix(0.07407407407407408,0,0,0.07407407407407408,0,0)" xlink:href="#F"/><use transform="matrix(0.07407407407407408,0,0,0.07407407407407408,14.814814814814817,0)" xlink:href="#L"/><use transform="matrix(0.07407407407407408,0,0,0.07407407407407408,28.148148148148152,0)" xlink:href="#C"/></g><path d="M30 0v-248h187v28H63v79h144v27H63v87h162V0H30" id="M"/><path d="M30-248c118-7 216 8 213 122C240-48 200 0 122 0H30v-248zM63-27c89 8 146-16 146-99s-60-101-146-95v194" id="N"/><g id="f"><use transform="matrix(0.07407407407407408,0,0,0.07407407407407408,0,0)" xlink:href="#M"/><use transform="matrix(0.07407407407407408,0,0,0.07407407407407408,17.77777777777778,0)" xlink:href="#H"/><use transform="matrix(0.07407407407407408,0,0,0.07407407407407408,36.96296296296296,0)" xlink:href="#N"/></g><g id="g"><use transform="matrix(0.07407407407407408,0,0,0.07407407407407408,0,0)" xlink:href="#J"/><use transform="matrix(0.07407407407407408,0,0,0.07407407407407408,17.77777777777778,0)" xlink:href="#K"/></g><path d="M30-248c87 1 191-15 191 75 0 78-77 80-158 76V0H30v-248zm33 125c57 0 124 11 124-50 0-59-68-47-124-48v98" id="O"/><path d="M233-177c-1 41-23 64-60 70L243 0h-38l-65-103H63V0H30v-248c88 3 205-21 203 71zM63-129c60-2 137 13 137-47 0-61-80-42-137-45v92" id="P"/><path d="M140-251c81 0 123 46 123 126C263-46 219 4 140 4 59 4 17-45 17-125s42-126 123-126zm0 227c63 0 89-41 89-101s-29-99-89-99c-61 0-89 39-89 99S79-25 140-24" id="Q"/><path d="M240 0l2-218c-23 76-54 145-80 218h-23L58-218 59 0H30v-248h44l77 211c21-75 51-140 76-211h43V0h-30" id="R"/><path d="M127-220V0H93v-220H8v-28h204v28h-85" id="S"/><g id="h"><use transform="matrix(0.07407407407407408,0,0,0.07407407407407408,0,0)" xlink:href="#O"/><use transform="matrix(0.07407407407407408,0,0,0.07407407407407408,17.77777777777778,0)" xlink:href="#P"/><use transform="matrix(0.07407407407407408,0,0,0.07407407407407408,36.96296296296296,0)" xlink:href="#Q"/><use transform="matrix(0.07407407407407408,0,0,0.07407407407407408,57.70370370370371,0)" xlink:href="#R"/><use transform="matrix(0.07407407407407408,0,0,0.07407407407407408,79.85185185185186,0)" xlink:href="#O"/><use transform="matrix(0.07407407407407408,0,0,0.07407407407407408,97.62962962962965,0)" xlink:href="#S"/></g><path d="M185-189c-5-48-123-54-124 2 14 75 158 14 163 119 3 78-121 87-175 55-17-10-28-26-33-46l33-7c5 56 141 63 141-1 0-78-155-14-162-118-5-82 145-84 179-34 5 7 8 16 11 25" id="T"/><path d="M197 0v-115H63V0H30v-248h33v105h134v-105h34V0h-34" id="U"/><g id="i"><use transform="matrix(0.07407407407407408,0,0,0.07407407407407408,0,0)" xlink:href="#T"/><use transform="matrix(0.07407407407407408,0,0,0.07407407407407408,17.77777777777778,0)" xlink:href="#H"/><use transform="matrix(0.07407407407407408,0,0,0.07407407407407408,36.96296296296296,0)" xlink:href="#J"/><use transform="matrix(0.07407407407407408,0,0,0.07407407407407408,52.74074074074074,0)" xlink:href="#S"/><use transform="matrix(0.07407407407407408,0,0,0.07407407407407408,68.96296296296296,0)" xlink:href="#v"/><use transform="matrix(0.07407407407407408,0,0,0.07407407407407408,88.14814814814817,0)" xlink:href="#U"/></g><path d="M101-251c82-7 93 87 43 132L82-64C71-53 59-42 53-27h129V0H18c2-99 128-94 128-182 0-28-16-43-45-43s-46 15-49 41l-32-3c6-41 34-60 81-64" id="V"/><use transform="matrix(0.07407407407407408,0,0,0.07407407407407408,0,0)" xlink:href="#V" id="j"/><g id="k"><use transform="matrix(0.07407407407407408,0,0,0.07407407407407408,0,0)" xlink:href="#Q"/><use transform="matrix(0.07407407407407408,0,0,0.07407407407407408,20.740740740740744,0)" xlink:href="#T"/><use transform="matrix(0.07407407407407408,0,0,0.07407407407407408,38.51851851851851,0)" xlink:href="#K"/><use transform="matrix(0.07407407407407408,0,0,0.07407407407407408,45.925925925925924,0)" xlink:href="#H"/><use transform="matrix(0.07407407407407408,0,0,0.07407407407407408,65.11111111111111,0)" xlink:href="#S"/></g><path d="M114-163C36-179 61-72 57 0H25l-1-190h30c1 12-1 29 2 39 6-27 23-49 58-41v29" id="W"/><path d="M24 0v-261h32V0H24" id="X"/><g id="l"><use transform="matrix(0.07407407407407408,0,0,0.07407407407407408,0,0)" xlink:href="#H"/><use transform="matrix(0.07407407407407408,0,0,0.07407407407407408,19.185185185185187,0)" xlink:href="#C"/><use transform="matrix(0.07407407407407408,0,0,0.07407407407407408,34,0)" xlink:href="#F"/><use transform="matrix(0.07407407407407408,0,0,0.07407407407407408,48.81481481481481,0)" xlink:href="#W"/><use transform="matrix(0.07407407407407408,0,0,0.07407407407407408,57.62962962962964,0)" xlink:href="#y"/><use transform="matrix(0.07407407407407408,0,0,0.07407407407407408,72.44444444444446,0)" xlink:href="#X"/></g><path d="M206 0h-36l-40-164L89 0H53L-1-190h32L70-26l43-164h34l41 164 42-164h31" id="Y"/><path d="M143 0L79-87 56-68V0H24v-261h32v163l83-92h37l-77 82L181 0h-38" id="Z"/><g id="m"><use transform="matrix(0.07407407407407408,0,0,0.07407407407407408,0,0)" xlink:href="#H"/><use transform="matrix(0.07407407407407408,0,0,0.07407407407407408,19.185185185185187,0)" xlink:href="#C"/><use transform="matrix(0.07407407407407408,0,0,0.07407407407407408,34,0)" xlink:href="#G"/><use transform="matrix(0.07407407407407408,0,0,0.07407407407407408,41.407407407407405,0)" xlink:href="#Y"/><use transform="matrix(0.07407407407407408,0,0,0.07407407407407408,60.592592592592595,0)" xlink:href="#w"/><use transform="matrix(0.07407407407407408,0,0,0.07407407407407408,75.40740740740742,0)" xlink:href="#W"/><use transform="matrix(0.07407407407407408,0,0,0.07407407407407408,84.22222222222223,0)" xlink:href="#Z"/></g><path d="M24-231v-30h32v30H24zM24 0v-190h32V0H24" id="aa"/><g id="n"><use transform="matrix(0.07407407407407408,0,0,0.07407407407407408,0,0)" xlink:href="#J"/><use transform="matrix(0.07407407407407408,0,0,0.07407407407407408,17.77777777777778,0)" xlink:href="#F"/><use transform="matrix(0.07407407407407408,0,0,0.07407407407407408,32.592592592592595,0)" xlink:href="#G"/><use transform="matrix(0.07407407407407408,0,0,0.07407407407407408,40,0)" xlink:href="#w"/><use transform="matrix(0.07407407407407408,0,0,0.07407407407407408,54.81481481481482,0)" xlink:href="#x"/><use transform="matrix(0.07407407407407408,0,0,0.07407407407407408,76.96296296296296,0)" xlink:href="#y"/><use transform="matrix(0.07407407407407408,0,0,0.07407407407407408,91.77777777777777,0)" xlink:href="#G"/><use transform="matrix(0.07407407407407408,0,0,0.07407407407407408,99.18518518518518,0)" xlink:href="#aa"/><use transform="matrix(0.07407407407407408,0,0,0.07407407407407408,105.03703703703702,0)" xlink:href="#w"/><use transform="matrix(0.07407407407407408,0,0,0.07407407407407408,119.85185185185185,0)" xlink:href="#z"/></g><g id="o"><use transform="matrix(0.07407407407407408,0,0,0.07407407407407408,0,0)" xlink:href="#O"/><use transform="matrix(0.07407407407407408,0,0,0.07407407407407408,17.77777777777778,0)" xlink:href="#y"/><use transform="matrix(0.07407407407407408,0,0,0.07407407407407408,32.592592592592595,0)" xlink:href="#G"/><use transform="matrix(0.07407407407407408,0,0,0.07407407407407408,40,0)" xlink:href="#G"/><use transform="matrix(0.07407407407407408,0,0,0.07407407407407408,47.407407407407405,0)" xlink:href="#C"/><use transform="matrix(0.07407407407407408,0,0,0.07407407407407408,62.22222222222222,0)" xlink:href="#W"/><use transform="matrix(0.07407407407407408,0,0,0.07407407407407408,71.03703703703704,0)" xlink:href="#z"/></g><path d="M106-169C34-169 62-67 57 0H25v-261h32l-1 103c12-21 28-36 61-36 89 0 53 116 60 194h-32v-121c2-32-8-49-39-48" id="ab"/><g id="p"><use transform="matrix(0.07407407407407408,0,0,0.07407407407407408,0,0)" xlink:href="#L"/><use transform="matrix(0.07407407407407408,0,0,0.07407407407407408,13.333333333333336,0)" xlink:href="#C"/><use transform="matrix(0.07407407407407408,0,0,0.07407407407407408,28.148148148148152,0)" xlink:href="#y"/><use transform="matrix(0.07407407407407408,0,0,0.07407407407407408,42.96296296296297,0)" xlink:href="#W"/><use transform="matrix(0.07407407407407408,0,0,0.07407407407407408,51.777777777777786,0)" xlink:href="#E"/><use transform="matrix(0.07407407407407408,0,0,0.07407407407407408,65.11111111111111,0)" xlink:href="#ab"/></g><path d="M108 0H70L1-190h34L89-25l56-165h34" id="ac"/><g id="q"><use transform="matrix(0.07407407407407408,0,0,0.07407407407407408,0,0)" xlink:href="#M"/><use transform="matrix(0.07407407407407408,0,0,0.07407407407407408,17.77777777777778,0)" xlink:href="#D"/><use transform="matrix(0.07407407407407408,0,0,0.07407407407407408,31.111111111111114,0)" xlink:href="#y"/><use transform="matrix(0.07407407407407408,0,0,0.07407407407407408,45.92592592592593,0)" xlink:href="#F"/><use transform="matrix(0.07407407407407408,0,0,0.07407407407407408,60.74074074074075,0)" xlink:href="#E"/><use transform="matrix(0.07407407407407408,0,0,0.07407407407407408,74.07407407407408,0)" xlink:href="#G"/><use transform="matrix(0.07407407407407408,0,0,0.07407407407407408,81.48148148148148,0)" xlink:href="#aa"/><use transform="matrix(0.07407407407407408,0,0,0.07407407407407408,87.33333333333333,0)" xlink:href="#ac"/><use transform="matrix(0.07407407407407408,0,0,0.07407407407407408,100.66666666666666,0)" xlink:href="#C"/></g><g id="r"><use transform="matrix(0.07407407407407408,0,0,0.07407407407407408,0,0)" xlink:href="#N"/><use transform="matrix(0.07407407407407408,0,0,0.07407407407407408,19.185185185185187,0)" xlink:href="#y"/><use transform="matrix(0.07407407407407408,0,0,0.07407407407407408,34,0)" xlink:href="#G"/><use transform="matrix(0.07407407407407408,0,0,0.07407407407407408,41.407407407407405,0)" xlink:href="#y"/></g><g id="s"><use transform="matrix(0.07407407407407408,0,0,0.07407407407407408,0,0)" xlink:href="#E"/><use transform="matrix(0.07407407407407408,0,0,0.07407407407407408,13.333333333333336,0)" xlink:href="#w"/><use transform="matrix(0.07407407407407408,0,0,0.07407407407407408,28.148148148148152,0)" xlink:href="#X"/><use transform="matrix(0.07407407407407408,0,0,0.07407407407407408,34.00000000000001,0)" xlink:href="#X"/><use transform="matrix(0.07407407407407408,0,0,0.07407407407407408,39.85185185185187,0)" xlink:href="#C"/><use transform="matrix(0.07407407407407408,0,0,0.07407407407407408,54.666666666666686,0)" xlink:href="#E"/><use transform="matrix(0.07407407407407408,0,0,0.07407407407407408,68.00000000000001,0)" xlink:href="#G"/><use transform="matrix(0.07407407407407408,0,0,0.07407407407407408,75.40740740740742,0)" xlink:href="#aa"/><use transform="matrix(0.07407407407407408,0,0,0.07407407407407408,81.25925925925927,0)" xlink:href="#w"/><use transform="matrix(0.07407407407407408,0,0,0.07407407407407408,96.07407407407408,0)" xlink:href="#z"/></g><g id="t"><use transform="matrix(0.07407407407407408,0,0,0.07407407407407408,0,0)" xlink:href="#y"/><use transform="matrix(0.07407407407407408,0,0,0.07407407407407408,14.814814814814817,0)" xlink:href="#z"/><use transform="matrix(0.07407407407407408,0,0,0.07407407407407408,29.629629629629633,0)" xlink:href="#A"/></g><path d="M177-190C167-65 218 103 67 71c-23-6-38-20-44-43l32-5c15 47 100 32 89-28v-30C133-14 115 1 83 1 29 1 15-40 15-95c0-56 16-97 71-98 29-1 48 16 59 35 1-10 0-23 2-32h30zM94-22c36 0 50-32 50-73 0-42-14-75-50-75-39 0-46 34-46 75s6 73 46 73" id="ad"/><g id="u"><use transform="matrix(0.07407407407407408,0,0,0.07407407407407408,0,0)" xlink:href="#L"/><use transform="matrix(0.07407407407407408,0,0,0.07407407407407408,13.333333333333336,0)" xlink:href="#G"/><use transform="matrix(0.07407407407407408,0,0,0.07407407407407408,20.740740740740744,0)" xlink:href="#W"/><use transform="matrix(0.07407407407407408,0,0,0.07407407407407408,29.55555555555556,0)" xlink:href="#F"/><use transform="matrix(0.07407407407407408,0,0,0.07407407407407408,44.37037037037039,0)" xlink:href="#E"/><use transform="matrix(0.07407407407407408,0,0,0.07407407407407408,57.70370370370372,0)" xlink:href="#G"/><use transform="matrix(0.07407407407407408,0,0,0.07407407407407408,65.11111111111113,0)" xlink:href="#F"/><use transform="matrix(0.07407407407407408,0,0,0.07407407407407408,79.92592592592595,0)" xlink:href="#W"/><use transform="matrix(0.07407407407407408,0,0,0.07407407407407408,88.74074074074078,0)" xlink:href="#aa"/><use transform="matrix(0.07407407407407408,0,0,0.07407407407407408,94.59259259259261,0)" xlink:href="#z"/><use transform="matrix(0.07407407407407408,0,0,0.07407407407407408,109.40740740740742,0)" xlink:href="#ad"/></g></defs></g></svg>