<svg xmlns="http://www.w3.org/2000/svg" xmlns:xlink="http://www.w3.org/1999/xlink" xmlns:lucid="lucid" width="2453.98" height="994.56"><g transform="translate(250.67037836250967 136.55313210139582)" lucid:page-tab-id="0_0"><path d="M502.52-116.55h300.53v72H502.53z" fill="none"/><use xlink:href="#a" transform="matrix(1,0,0,1,522.5248068226756,-93.55313210139582) translate(0 21.833333333333336)"/><use xlink:href="#b" transform="matrix(1,0,0,1,522.5248068226756,-93.55313210139582) translate(130.14814814814815 21.833333333333336)"/><use xlink:href="#c" transform="matrix(1,0,0,1,522.5248068226756,-93.55313210139582) translate(152.37037037037038 21.833333333333336)"/><path d="M169.33-116.55h173.2v72h-173.2z" fill="none"/><use xlink:href="#d" transform="matrix(1,0,0,1,189.32962163749033,-93.55313210139582) translate(0 21.833333333333336)"/><use xlink:href="#e" transform="matrix(1,0,0,1,189.32962163749033,-93.55313210139582) translate(90.22222222222223 21.833333333333336)"/><path d="M963.05-116.55h96.16v72h-96.15z" fill="none"/><use xlink:href="#f" transform="matrix(1,0,0,1,983.0533253411941,-93.55313210139582) translate(0 21.833333333333336)"/><path d="M971.85 72.52l4.9.1 6.6.4 5.97.64 5.46.8 5.08.97 4.78 1.12 4.58 1.28 4.45 1.44 4.4 1.65 4.5 1.88 4.73 2.23 5.33 2.8 7.02 4.06 26.42 16.2 5.33 2.8 4.73 2.24 4.5 1.88 4.4 1.65 4.45 1.44 4.58 1.3 4.78 1.1 5.08.98 5.46.8 5.96.63 6.6.42 4.9.1" stroke="#fc9432" stroke-width="5" stroke-linejoin="round" fill="none"/><path d="M971.97 70.05l-.1 4.94-2.52-.06V70zM1129.35 121v4.95h-2.56V121z" stroke="#fc9432" stroke-width=".05" fill="#fc9432"/><path d="M358.3 72.47h154.98" stroke="#fc9432" stroke-width="5" stroke-linejoin="round" fill="none"/><path d="M358.35 74.94h-2.57V70h2.57zM515.78 74.94h-2.56V70h2.56z" stroke="#fc9432" stroke-width=".05" fill="#fc9432"/><path d="M11.83-4l2.54.06 4.66.3 4.34.45 4.08.6 3.87.75 3.7.87 3.54 1L42 1.1l3.37 1.26 3.32 1.4L52 5.33l3.35 1.74 3.42 1.98 3.57 2.26 3.8 2.66 4.26 3.22 5.12 4.25 8.07 7.3 19.54 18.22 5.12 4.25 4.25 3.23 3.82 2.65 3.57 2.27 3.4 1.97 3.35 1.75 3.3 1.55 3.34 1.4 3.36 1.25 3.44 1.12 3.55 1 3.7.86 3.86.73 4.1.6 4.33.47 4.66.3 2.53.05" stroke="#fc9432" stroke-width="5" stroke-linejoin="round" fill="none"/><path d="M11.95-6.46l-.1 4.95-2.7-.07.18-2.47-.2-2.48zM169.33 70v4.94h-2.57V70z" stroke="#fc9432" stroke-width=".05" fill="#fc9432"/><path d="M805.56-80.55h155" stroke="#ffe342" stroke-width="5" stroke-linejoin="round" fill="none"/><path d="M805.62-78.07h-2.57v-4.95h2.57zM963.05-78.07h-2.56v-4.95h2.55z" stroke="#ffe342" stroke-width=".05" fill="#ffe342"/><path d="M169.33 36.46h186.45v72H169.33z" fill="none"/><use xlink:href="#g" transform="matrix(1,0,0,1,189.32962163749033,59.46186789860417) translate(0 21.833333333333336)"/><use xlink:href="#h" transform="matrix(1,0,0,1,189.32962163749033,59.46186789860417) translate(32.592592592592595 21.833333333333336)"/><path d="M-230.67-4.04a40 40 0 0 1 40-40h160a40 40 0 0 1 40 40 40 40 0 0 1-40 40h-160a40 40 0 0 1-40-40z" fill="#fff"/><use xlink:href="#i" transform="matrix(1,0,0,1,-230.67037836250967,-44.04063210139583) translate(65.62962962962962 45.333333333333336)"/><path d="M1129.35 87.47h300.53v72h-300.53z" fill="none"/><use xlink:href="#a" transform="matrix(1,0,0,1,1149.3496216374904,110.46686789860416) translate(0 21.833333333333336)"/><use xlink:href="#j" transform="matrix(1,0,0,1,1149.3496216374904,110.46686789860416) translate(130.14814814814815 21.833333333333336)"/><use xlink:href="#c" transform="matrix(1,0,0,1,1149.3496216374904,110.46686789860416) translate(152.37037037037038 21.833333333333336)"/><path d="M1129.35-14.54h300.53v72h-300.53z" fill="none"/><use xlink:href="#a" transform="matrix(1,0,0,1,1149.3496216374904,8.456867898604173) translate(0 21.833333333333336)"/><use xlink:href="#b" transform="matrix(1,0,0,1,1149.3496216374904,8.456867898604173) translate(130.14814814814815 21.833333333333336)"/><use xlink:href="#c" transform="matrix(1,0,0,1,1149.3496216374904,8.456867898604173) translate(152.37037037037038 21.833333333333336)"/><path d="M345.03-80.55h155" stroke="#ffe342" stroke-width="5" stroke-linejoin="round" fill="none"/><path d="M345.1-78.07h-2.58v-4.95h2.57zM502.52-78.07h-2.56v-4.95h2.56z" stroke="#ffe342" stroke-width=".05" fill="#ffe342"/><path d="M515.78 36.46h453.57v72H515.78z" fill="none"/><use xlink:href="#k" transform="matrix(1,0,0,1,535.7840660819347,59.46186789860417) translate(0 21.833333333333336)"/><use xlink:href="#l" transform="matrix(1,0,0,1,535.7840660819347,59.46186789860417) translate(88.22222222222223 21.833333333333336)"/><use xlink:href="#m" transform="matrix(1,0,0,1,535.7840660819347,59.46186789860417) translate(173.92592592592592 21.833333333333336)"/><use xlink:href="#n" transform="matrix(1,0,0,1,535.7840660819347,59.46186789860417) translate(278.8888888888889 21.833333333333336)"/><path d="M11.83-4.1l2.54-.04 4.66-.3 4.34-.45 4.08-.6 3.87-.73 3.7-.87 3.54-1L42-9.2l3.37-1.26 3.32-1.4 3.3-1.56 3.35-1.74 3.42-1.98 3.57-2.26 3.8-2.66 4.26-3.23 5.12-4.23 8.07-7.3 19.54-18.23 5.12-4.24 4.25-3.23 3.82-2.65 3.57-2.27 3.4-1.97 3.35-1.75 3.3-1.56 3.34-1.4 3.36-1.25 3.44-1.12 3.55-1 3.7-.86 3.86-.73 4.1-.6 4.33-.45 4.66-.3 2.53-.05" stroke="#ffe342" stroke-width="5" stroke-linejoin="round" fill="none"/><path d="M11.95-1.62l-2.82.06.2-2.48-.2-2.47 2.7-.07zM169.33-78.07h-2.56v-4.95h2.56z" stroke="#ffe342" stroke-width=".05" fill="#ffe342"/><path d="M971.85 72.42l4.9-.1 6.6-.42 5.97-.62 5.46-.8 5.08-.98 4.78-1.12 4.58-1.27 4.45-1.44 4.4-1.64 4.5-1.9 4.73-2.22 5.33-2.8 7.02-4.06 26.42-16.22 5.33-2.8 4.73-2.22 4.5-1.9 4.4-1.63 4.45-1.45 4.58-1.27 4.78-1.13 5.08-.96 5.46-.8 5.96-.63 6.6-.42 4.9-.1" stroke="#fc9432" stroke-width="5" stroke-linejoin="round" fill="none"/><path d="M971.97 74.9l-2.62.04V70l2.5-.06zM1129.35 23.94h-2.56V19h2.55z" stroke="#fc9432" stroke-width=".05" fill="#fc9432"/><path d="M502.52-116.55h300.53v72H502.53z" fill="none"/><use xlink:href="#a" transform="matrix(1,0,0,1,522.5248068226756,-93.55313210139582) translate(0 21.833333333333336)"/><use xlink:href="#b" transform="matrix(1,0,0,1,522.5248068226756,-93.55313210139582) translate(130.14814814814815 21.833333333333336)"/><use xlink:href="#c" transform="matrix(1,0,0,1,522.5248068226756,-93.55313210139582) translate(152.37037037037038 21.833333333333336)"/><path d="M169.33-116.55h173.2v72h-173.2z" fill="none"/><use xlink:href="#d" transform="matrix(1,0,0,1,189.32962163749033,-93.55313210139582) translate(0 21.833333333333336)"/><use xlink:href="#e" transform="matrix(1,0,0,1,189.32962163749033,-93.55313210139582) translate(90.22222222222223 21.833333333333336)"/><path d="M963.05-116.55h96.16v72h-96.15z" fill="none"/><use xlink:href="#f" transform="matrix(1,0,0,1,983.0533253411941,-93.55313210139582) translate(0 21.833333333333336)"/><path d="M971.85 72.52l4.9.1 6.6.4 5.97.64 5.46.8 5.08.97 4.78 1.12 4.58 1.28 4.45 1.44 4.4 1.65 4.5 1.88 4.73 2.23 5.33 2.8 7.02 4.06 26.42 16.2 5.33 2.8 4.73 2.24 4.5 1.88 4.4 1.65 4.45 1.44 4.58 1.3 4.78 1.1 5.08.98 5.46.8 5.96.63 6.6.42 4.9.1" stroke="#fc9432" stroke-width="5" stroke-linejoin="round" fill="none"/><path d="M971.97 70.05l-.1 4.94-2.52-.06V70zM1129.35 121v4.95h-2.56V121z" stroke="#fc9432" stroke-width=".05" fill="#fc9432"/><path d="M358.3 72.47h154.98" stroke="#fc9432" stroke-width="5" stroke-linejoin="round" fill="none"/><path d="M358.35 74.94h-2.57V70h2.57zM515.78 74.94h-2.56V70h2.56z" stroke="#fc9432" stroke-width=".05" fill="#fc9432"/><path d="M11.83-4l2.54.06 4.66.3 4.34.45 4.08.6 3.87.75 3.7.87 3.54 1L42 1.1l3.37 1.26 3.32 1.4L52 5.33l3.35 1.74 3.42 1.98 3.57 2.26 3.8 2.66 4.26 3.22 5.12 4.25 8.07 7.3 19.54 18.22 5.12 4.25 4.25 3.23 3.82 2.65 3.57 2.27 3.4 1.97 3.35 1.75 3.3 1.55 3.34 1.4 3.36 1.25 3.44 1.12 3.55 1 3.7.86 3.86.73 4.1.6 4.33.47 4.66.3 2.53.05" stroke="#fc9432" stroke-width="5" stroke-linejoin="round" fill="none"/><path d="M11.95-6.46l-.1 4.95-2.7-.07.18-2.47-.2-2.48zM169.33 70v4.94h-2.57V70z" stroke="#fc9432" stroke-width=".05" fill="#fc9432"/><path d="M805.56-80.55h155" stroke="#ffe342" stroke-width="5" stroke-linejoin="round" fill="none"/><path d="M805.62-78.07h-2.57v-4.95h2.57zM963.05-78.07h-2.56v-4.95h2.55z" stroke="#ffe342" stroke-width=".05" fill="#ffe342"/><path d="M169.33 36.46h186.45v72H169.33z" fill="none"/><use xlink:href="#g" transform="matrix(1,0,0,1,189.32962163749033,59.46186789860417) translate(0 21.833333333333336)"/><use xlink:href="#h" transform="matrix(1,0,0,1,189.32962163749033,59.46186789860417) translate(32.592592592592595 21.833333333333336)"/><path d="M-230.67-4.04a40 40 0 0 1 40-40h160a40 40 0 0 1 40 40 40 40 0 0 1-40 40h-160a40 40 0 0 1-40-40z" fill="#fff"/><use xlink:href="#i" transform="matrix(1,0,0,1,-230.67037836250967,-44.04063210139583) translate(65.62962962962962 45.333333333333336)"/><path d="M1129.35 87.47h300.53v72h-300.53z" fill="none"/><use xlink:href="#a" transform="matrix(1,0,0,1,1149.3496216374904,110.46686789860416) translate(0 21.833333333333336)"/><use xlink:href="#j" transform="matrix(1,0,0,1,1149.3496216374904,110.46686789860416) translate(130.14814814814815 21.833333333333336)"/><use xlink:href="#c" transform="matrix(1,0,0,1,1149.3496216374904,110.46686789860416) translate(152.37037037037038 21.833333333333336)"/><path d="M1129.35-14.54h300.53v72h-300.53z" fill="none"/><use xlink:href="#a" transform="matrix(1,0,0,1,1149.3496216374904,8.456867898604173) translate(0 21.833333333333336)"/><use xlink:href="#b" transform="matrix(1,0,0,1,1149.3496216374904,8.456867898604173) translate(130.14814814814815 21.833333333333336)"/><use xlink:href="#c" transform="matrix(1,0,0,1,1149.3496216374904,8.456867898604173) translate(152.37037037037038 21.833333333333336)"/><path d="M345.03-80.55h155" stroke="#ffe342" stroke-width="5" stroke-linejoin="round" fill="none"/><path d="M345.1-78.07h-2.58v-4.95h2.57zM502.52-78.07h-2.56v-4.95h2.56z" stroke="#ffe342" stroke-width=".05" fill="#ffe342"/><path d="M515.78 36.46h453.57v72H515.78z" fill="none"/><use xlink:href="#k" transform="matrix(1,0,0,1,535.7840660819347,59.46186789860417) translate(0 21.833333333333336)"/><use xlink:href="#l" transform="matrix(1,0,0,1,535.7840660819347,59.46186789860417) translate(88.22222222222223 21.833333333333336)"/><use xlink:href="#m" transform="matrix(1,0,0,1,535.7840660819347,59.46186789860417) translate(173.92592592592592 21.833333333333336)"/><use xlink:href="#n" transform="matrix(1,0,0,1,535.7840660819347,59.46186789860417) translate(278.8888888888889 21.833333333333336)"/><path d="M11.83-4.1l2.54-.04 4.66-.3 4.34-.45 4.08-.6 3.87-.73 3.7-.87 3.54-1L42-9.2l3.37-1.26 3.32-1.4 3.3-1.56 3.35-1.74 3.42-1.98 3.57-2.26 3.8-2.66 4.26-3.23 5.12-4.23 8.07-7.3 19.54-18.23 5.12-4.24 4.25-3.23 3.82-2.65 3.57-2.27 3.4-1.97 3.35-1.75 3.3-1.56 3.34-1.4 3.36-1.25 3.44-1.12 3.55-1 3.7-.86 3.86-.73 4.1-.6 4.33-.45 4.66-.3 2.53-.05" stroke="#ffe342" stroke-width="5" stroke-linejoin="round" fill="none"/><path d="M11.95-1.62l-2.82.06.2-2.48-.2-2.47 2.7-.07zM169.33-78.07h-2.56v-4.95h2.56z" stroke="#ffe342" stroke-width=".05" fill="#ffe342"/><path d="M971.85 72.42l4.9-.1 6.6-.42 5.97-.62 5.46-.8 5.08-.98 4.78-1.12 4.58-1.27 4.45-1.44 4.4-1.64 4.5-1.9 4.73-2.22 5.33-2.8 7.02-4.06 26.42-16.22 5.33-2.8 4.73-2.22 4.5-1.9 4.4-1.63 4.45-1.45 4.58-1.27 4.78-1.13 5.08-.96 5.46-.8 5.96-.63 6.6-.42 4.9-.1" stroke="#fc9432" stroke-width="5" stroke-linejoin="round" fill="none"/><path d="M971.97 74.9l-2.62.04V70l2.5-.06zM1129.35 23.94h-2.56V19h2.55z" stroke="#fc9432" stroke-width=".05" fill="#fc9432"/><path d="M1882.78 504.48h300.53v72H1882.8z" fill="none"/><use xlink:href="#a" transform="matrix(1,0,0,1,1902.7782023360187,527.4768678986042) translate(0 21.833333333333336)"/><use xlink:href="#j" transform="matrix(1,0,0,1,1902.7782023360187,527.4768678986042) translate(130.14814814814815 21.833333333333336)"/><use xlink:href="#c" transform="matrix(1,0,0,1,1902.7782023360187,527.4768678986042) translate(152.37037037037038 21.833333333333336)"/><path d="M1717.78 72.47a40 40 0 0 1 40-40h160a40 40 0 0 1 40 40 40 40 0 0 1-40 40h-160a40 40 0 0 1-40-40z" fill="#fff"/><use xlink:href="#o" transform="matrix(1,0,0,1,1717.7782023360187,32.466867898604164) translate(27.555555555555543 45.333333333333336)"/><use xlink:href="#p" transform="matrix(1,0,0,1,1717.7782023360187,32.466867898604164) translate(126.59259259259258 45.333333333333336)"/><path d="M1716.37 272.47h242.82v72h-242.83z" fill="none"/><use xlink:href="#q" transform="matrix(1,0,0,1,1736.3657949286112,295.46686789860416) translate(0 21.833333333333336)"/><use xlink:href="#r" transform="matrix(1,0,0,1,1736.3657949286112,295.46686789860416) translate(122.88888888888887 21.833333333333336)"/><path d="M1492.25 504.48h300.53v72h-300.53z" fill="none"/><use xlink:href="#a" transform="matrix(1,0,0,1,1512.2496838175,527.4768678986042) translate(0 21.833333333333336)"/><use xlink:href="#b" transform="matrix(1,0,0,1,1512.2496838175,527.4768678986042) translate(130.14814814814815 21.833333333333336)"/><use xlink:href="#c" transform="matrix(1,0,0,1,1512.2496838175,527.4768678986042) translate(152.37037037037038 21.833333333333336)"/><path d="M1837.85 346.98l.1 1.5.2 1.9.27 1.88.35 1.84.43 1.82.5 1.8.58 1.8.67 1.78.75 1.8.85 1.8.95 1.8 1.07 1.86 1.2 1.88 1.34 1.94 1.52 1.98 1.7 2.06 1.93 2.14 2.2 2.25 2.53 2.38 2.92 2.52 3.43 2.7 4.07 2.96 4.93 3.28 6.15 3.7 8 4.4 11.33 5.6 21.13 9.33 54.1 22.94 11.3 5.6 8 4.4 6.16 3.72 4.92 3.27 4.07 2.94 3.42 2.72 2.92 2.52 2.53 2.37 2.2 2.24 1.93 2.13 1.7 2.06 1.5 1.98 1.35 1.93 1.2 1.9 1.07 1.84.95 1.82.85 1.8.75 1.8.67 1.78.58 1.8.5 1.8.43 1.8.35 1.85.27 1.87.2 1.9.1 1.5" stroke="#635dff" stroke-width="5" stroke-linejoin="round" fill="none"/><path d="M1840.3 347l-4.94.1-.06-2.62h4.95zM2035.52 504.48h-4.95v-2.57h4.95z" stroke="#635dff" stroke-width=".05" fill="#635dff"/><path d="M1837.78 114.97v155" stroke="#635dff" stroke-width="5" stroke-linejoin="round" fill="none"/><path d="M1840.25 115.03h-4.95v-2.56h4.95zM1840.25 272.47h-4.95v-2.57h4.95z" stroke="#635dff" stroke-width=".05" fill="#635dff"/><path d="M1837.7 346.98l-.1 1.5-.2 1.9-.27 1.88-.35 1.84-.42 1.82-.5 1.8-.6 1.8-.65 1.78-.74 1.8-.85 1.8-.95 1.8-1.06 1.86-1.2 1.88-1.35 1.94-1.5 1.98-1.72 2.06-1.93 2.14-2.2 2.25-2.52 2.38-2.92 2.52-3.43 2.7-4.07 2.96-4.94 3.28-6.14 3.7-8 4.4-11.33 5.6-21.12 9.33-54.1 22.94-11.3 5.6-8 4.4-6.16 3.72-4.94 3.27-4.07 2.94-3.42 2.72-2.93 2.52-2.5 2.37-2.2 2.24-1.94 2.13-1.7 2.06-1.5 1.98-1.36 1.93-1.2 1.9-1.06 1.84-.95 1.82-.86 1.8-.76 1.8-.66 1.78-.58 1.8-.5 1.8-.43 1.8-.34 1.85-.28 1.87-.2 1.9-.1 1.5" stroke="#635dff" stroke-width="5" stroke-linejoin="round" fill="none"/><path d="M1840.2 347.1l-4.95-.1.05-2.52h4.95zM1645 501.9v2.58h-4.96v-2.57z" stroke="#635dff" stroke-width=".05" fill="#635dff"/><path d="M1882.78 504.48h300.53v72H1882.8z" fill="none"/><use xlink:href="#a" transform="matrix(1,0,0,1,1902.7782023360187,527.4768678986042) translate(0 21.833333333333336)"/><use xlink:href="#j" transform="matrix(1,0,0,1,1902.7782023360187,527.4768678986042) translate(130.14814814814815 21.833333333333336)"/><use xlink:href="#c" transform="matrix(1,0,0,1,1902.7782023360187,527.4768678986042) translate(152.37037037037038 21.833333333333336)"/><path d="M1717.78 72.47a40 40 0 0 1 40-40h160a40 40 0 0 1 40 40 40 40 0 0 1-40 40h-160a40 40 0 0 1-40-40z" fill="#fff"/><use xlink:href="#o" transform="matrix(1,0,0,1,1717.7782023360187,32.466867898604164) translate(27.555555555555543 45.333333333333336)"/><use xlink:href="#p" transform="matrix(1,0,0,1,1717.7782023360187,32.466867898604164) translate(126.59259259259258 45.333333333333336)"/><path d="M1716.37 272.47h242.82v72h-242.83z" fill="none"/><use xlink:href="#q" transform="matrix(1,0,0,1,1736.3657949286112,295.46686789860416) translate(0 21.833333333333336)"/><use xlink:href="#r" transform="matrix(1,0,0,1,1736.3657949286112,295.46686789860416) translate(122.88888888888887 21.833333333333336)"/><path d="M1492.25 504.48h300.53v72h-300.53z" fill="none"/><use xlink:href="#a" transform="matrix(1,0,0,1,1512.2496838175,527.4768678986042) translate(0 21.833333333333336)"/><use xlink:href="#b" transform="matrix(1,0,0,1,1512.2496838175,527.4768678986042) translate(130.14814814814815 21.833333333333336)"/><use xlink:href="#c" transform="matrix(1,0,0,1,1512.2496838175,527.4768678986042) translate(152.37037037037038 21.833333333333336)"/><path d="M1837.85 346.98l.1 1.5.2 1.9.27 1.88.35 1.84.43 1.82.5 1.8.58 1.8.67 1.78.75 1.8.85 1.8.95 1.8 1.07 1.86 1.2 1.88 1.34 1.94 1.52 1.98 1.7 2.06 1.93 2.14 2.2 2.25 2.53 2.38 2.92 2.52 3.43 2.7 4.07 2.96 4.93 3.28 6.15 3.7 8 4.4 11.33 5.6 21.13 9.33 54.1 22.94 11.3 5.6 8 4.4 6.16 3.72 4.92 3.27 4.07 2.94 3.42 2.72 2.92 2.52 2.53 2.37 2.2 2.24 1.93 2.13 1.7 2.06 1.5 1.98 1.35 1.93 1.2 1.9 1.07 1.84.95 1.82.85 1.8.75 1.8.67 1.78.58 1.8.5 1.8.43 1.8.35 1.85.27 1.87.2 1.9.1 1.5" stroke="#635dff" stroke-width="5" stroke-linejoin="round" fill="none"/><path d="M1840.3 347l-4.94.1-.06-2.62h4.95zM2035.52 504.48h-4.95v-2.57h4.95z" stroke="#635dff" stroke-width=".05" fill="#635dff"/><path d="M1837.78 114.97v155" stroke="#635dff" stroke-width="5" stroke-linejoin="round" fill="none"/><path d="M1840.25 115.03h-4.95v-2.56h4.95zM1840.25 272.47h-4.95v-2.57h4.95z" stroke="#635dff" stroke-width=".05" fill="#635dff"/><path d="M1837.7 346.98l-.1 1.5-.2 1.9-.27 1.88-.35 1.84-.42 1.82-.5 1.8-.6 1.8-.65 1.78-.74 1.8-.85 1.8-.95 1.8-1.06 1.86-1.2 1.88-1.35 1.94-1.5 1.98-1.72 2.06-1.93 2.14-2.2 2.25-2.52 2.38-2.92 2.52-3.43 2.7-4.07 2.96-4.94 3.28-6.14 3.7-8 4.4-11.33 5.6-21.12 9.33-54.1 22.94-11.3 5.6-8 4.4-6.16 3.72-4.94 3.27-4.07 2.94-3.42 2.72-2.93 2.52-2.5 2.37-2.2 2.24-1.94 2.13-1.7 2.06-1.5 1.98-1.36 1.93-1.2 1.9-1.06 1.84-.95 1.82-.86 1.8-.76 1.8-.66 1.78-.58 1.8-.5 1.8-.43 1.8-.34 1.85-.28 1.87-.2 1.9-.1 1.5" stroke="#635dff" stroke-width="5" stroke-linejoin="round" fill="none"/><path d="M1840.2 347.1l-4.95-.1.05-2.52h4.95zM1645 501.9v2.58h-4.96v-2.57z" stroke="#635dff" stroke-width=".05" fill="#635dff"/><path d="M1432.38 21.5l20.4.42 18.83 1.18 16.12 1.68 14.32 2.1 13.3 2.55 13.06 3.06 14.1 3.94 21.26 6.98 41.4 14.07 14.1 3.94 13.06 3.06 13.3 2.53 14.32 2.1 16.1 1.7L1694.9 72l20.4.42" stroke="#e08fff" stroke-width="5" stroke-linejoin="round" fill="none"/><path d="M1432.5 19.04l-.1 4.95-2.52-.06V19zM1717.97 70l-.2 2.47.2 2.47h-2.76V70z" stroke="#e08fff" stroke-width=".05" fill="#e08fff"/><path d="M1432.38 123.42l20.4-.4 18.83-1.18 16.12-1.7 14.32-2.1 13.3-2.54 13.06-3.06 14.1-3.95 21.26-6.98 41.4-14.07 14.1-3.95 13.06-3.07 13.3-2.53 14.32-2.1 16.1-1.7 18.84-1.17 20.4-.4" stroke="#e08fff" stroke-width="5" stroke-linejoin="round" fill="none"/><path d="M1432.5 125.9l-2.62.05V121l2.52-.05zM1717.78 72.47l.2 2.47h-2.77V70h2.77z" stroke="#e08fff" stroke-width=".05" fill="#e08fff"/><path d="M1369.84 762H1466v72h-96.16z" fill="none"/><g><use xlink:href="#f" transform="matrix(1,0,0,1,1389.8372764100927,784.9977962572485) translate(0 21.833333333333336)"/></g><path d="M1626 798a40 40 0 0 1 40-40h343.56a40 40 0 0 1 40 40 40 40 0 0 1-40 40H1666a40 40 0 0 1-40-40z" fill="#fff"/><g><use xlink:href="#s" transform="matrix(1,0,0,1,1625.995424558241,758.0027962572485) translate(16.2222222222222 45.333333333333336)"/><use xlink:href="#t" transform="matrix(1,0,0,1,1625.995424558241,758.0027962572485) translate(81.25925925925924 45.333333333333336)"/><use xlink:href="#u" transform="matrix(1,0,0,1,1625.995424558241,758.0027962572485) translate(212.8148148148148 45.333333333333336)"/><use xlink:href="#v" transform="matrix(1,0,0,1,1625.995424558241,758.0027962572485) translate(267.4814814814815 45.333333333333336)"/></g><path d="M1623.5 798h-155" stroke="#635dff" stroke-width="5" stroke-linejoin="round" fill="none"/><path d="M1626 798l.2 2.48h-2.77v-4.95h2.76zM1468.56 800.48H1466v-4.95h2.56z" stroke="#635dff" stroke-width=".05" fill="#635dff"/><path d="M1369.84 762H1466v72h-96.16z" fill="none"/><g><use xlink:href="#f" transform="matrix(1,0,0,1,1389.8372764100927,784.9977962572485) translate(0 21.833333333333336)"/></g><path d="M1626 798a40 40 0 0 1 40-40h343.56a40 40 0 0 1 40 40 40 40 0 0 1-40 40H1666a40 40 0 0 1-40-40z" fill="#fff"/><g><use xlink:href="#s" transform="matrix(1,0,0,1,1625.995424558241,758.0027962572485) translate(16.2222222222222 45.333333333333336)"/><use xlink:href="#t" transform="matrix(1,0,0,1,1625.995424558241,758.0027962572485) translate(81.25925925925924 45.333333333333336)"/><use xlink:href="#u" transform="matrix(1,0,0,1,1625.995424558241,758.0027962572485) translate(212.8148148148148 45.333333333333336)"/><use xlink:href="#v" transform="matrix(1,0,0,1,1625.995424558241,758.0027962572485) translate(267.4814814814815 45.333333333333336)"/></g><path d="M1623.5 798h-155" stroke="#635dff" stroke-width="5" stroke-linejoin="round" fill="none"/><path d="M1626 798l.2 2.48h-2.77v-4.95h2.76zM1468.56 800.48H1466v-4.95h2.56z" stroke="#635dff" stroke-width=".05" fill="#635dff"/><path d="M1633.33 579l.15 2.38.24 2.34.34 2.28.43 2.24.5 2.2.6 2.18.7 2.16.8 2.15.92 2.16 1.02 2.15 1.14 2.18 1.28 2.22 1.43 2.25 1.6 2.3 1.8 2.37 2.02 2.46 2.3 2.55 2.63 2.68 3 2.82 3.5 3.02 4.12 3.26 4.92 3.57 6.02 4 7.66 4.63 10.4 5.7 16.68 8.24 68.6 31.73 10.4 5.7 7.67 4.63 6.03 4 4.92 3.57 4.12 3.26 3.5 3 3 2.83 2.63 2.68 2.3 2.56 2.03 2.45 1.8 2.4 1.6 2.3 1.43 2.25 1.27 2.2 1.14 2.2 1.03 2.15.9 2.16.8 2.15.7 2.17.62 2.18.52 2.2.42 2.24.33 2.27.25 2.34.15 2.4" stroke="#00c2a8" stroke-width="5" stroke-linejoin="round" fill="none"/><path d="M1635.8 579l-4.95.1-.05-2.6h4.95zM1840.25 758h-4.95v-2.56h4.95z" stroke="#00c2a8" stroke-width=".05" fill="#00c2a8"/><path d="M1837.83 755.5v-.1l.16-2.5.25-2.45.35-2.38.44-2.33.54-2.3.63-2.24.74-2.24.83-2.23.93-2.23 1.05-2.23 1.18-2.25 1.32-2.28 1.47-2.32 1.65-2.38 1.86-2.44 2.08-2.52 2.38-2.63 2.7-2.75 3.1-2.92 3.62-3.1 4.26-3.4 5.13-3.7 6.32-4.2 8.2-4.97 11.6-6.35 23.37-11.47 46.2-22.15 11.6-6.35 8.2-4.96 6.34-4.2 5.12-3.72 4.26-3.38 3.6-3.1 3.12-2.93 2.7-2.76 2.37-2.63 2.1-2.5 1.85-2.45 1.65-2.38 1.47-2.32 1.32-2.28 1.17-2.25 1.05-2.24.94-2.22.82-2.23.73-2.24.64-2.26.54-2.3.44-2.32.35-2.38.26-2.43.16-2.5v-.1" stroke="#00c2a8" stroke-width="5" stroke-linejoin="round" fill="none"/><path d="M1840.3 755.5l-.05 2.5h-4.95l.06-2.62zM2035.52 579.05h-4.95v-2.56h4.95z" stroke="#00c2a8" stroke-width=".05" fill="#00c2a8"/><defs><path d="M212-179c-10-28-35-45-73-45-59 0-87 40-87 99 0 60 29 101 89 101 43 0 62-24 78-52l27 14C228-24 195 4 139 4 59 4 22-46 18-125c-6-104 99-153 187-111 19 9 31 26 39 46" id="w"/><path d="M100-194c62-1 85 37 85 99 1 63-27 99-86 99S16-35 15-95c0-66 28-99 85-99zM99-20c44 1 53-31 53-75 0-43-8-75-51-75s-53 32-53 75 10 74 51 75" id="x"/><path d="M210-169c-67 3-38 105-44 169h-31v-121c0-29-5-50-35-48C34-165 62-65 56 0H25l-1-190h30c1 10-1 24 2 32 10-44 99-50 107 0 11-21 27-35 58-36 85-2 47 119 55 194h-31v-121c0-29-5-49-35-48" id="y"/><path d="M141-36C126-15 110 5 73 4 37 3 15-17 15-53c-1-64 63-63 125-63 3-35-9-54-41-54-24 1-41 7-42 31l-33-3c5-37 33-52 76-52 45 0 72 20 72 64v82c-1 20 7 32 28 27v20c-31 9-61-2-59-35zM48-53c0 20 12 33 32 33 41-3 63-29 60-74-43 2-92-5-92 41" id="z"/><path d="M117-194c89-4 53 116 60 194h-32v-121c0-31-8-49-39-48C34-167 62-67 57 0H25l-1-190h30c1 10-1 24 2 32 11-22 29-35 61-36" id="A"/><path d="M85-194c31 0 48 13 60 33l-1-100h32l1 261h-30c-2-10 0-23-3-31C134-8 116 4 85 4 32 4 16-35 15-94c0-66 23-100 70-100zm9 24c-40 0-46 34-46 75 0 40 6 74 45 74 42 0 51-32 51-76 0-42-9-74-50-73" id="B"/><g id="a"><use transform="matrix(0.07407407407407408,0,0,0.07407407407407408,0,0)" xlink:href="#w"/><use transform="matrix(0.07407407407407408,0,0,0.07407407407407408,19.185185185185187,0)" xlink:href="#x"/><use transform="matrix(0.07407407407407408,0,0,0.07407407407407408,34,0)" xlink:href="#y"/><use transform="matrix(0.07407407407407408,0,0,0.07407407407407408,56.14814814814815,0)" xlink:href="#y"/><use transform="matrix(0.07407407407407408,0,0,0.07407407407407408,78.2962962962963,0)" xlink:href="#z"/><use transform="matrix(0.07407407407407408,0,0,0.07407407407407408,93.1111111111111,0)" xlink:href="#A"/><use transform="matrix(0.07407407407407408,0,0,0.07407407407407408,107.92592592592592,0)" xlink:href="#B"/></g><path d="M27 0v-27h64v-190l-56 39v-29l58-41h29v221h61V0H27" id="C"/><use transform="matrix(0.07407407407407408,0,0,0.07407407407407408,0,0)" xlink:href="#C" id="b"/><path d="M100-194c63 0 86 42 84 106H49c0 40 14 67 53 68 26 1 43-12 49-29l28 8c-11 28-37 45-77 45C44 4 14-33 15-96c1-61 26-98 85-98zm52 81c6-60-76-77-97-28-3 7-6 17-6 28h103" id="D"/><path d="M141 0L90-78 38 0H4l68-98-65-92h35l48 74 47-74h35l-64 92 68 98h-35" id="E"/><path d="M96-169c-40 0-48 33-48 73s9 75 48 75c24 0 41-14 43-38l32 2c-6 37-31 61-74 61-59 0-76-41-82-99-10-93 101-131 147-64 4 7 5 14 7 22l-32 3c-4-21-16-35-41-35" id="F"/><path d="M84 4C-5 8 30-112 23-190h32v120c0 31 7 50 39 49 72-2 45-101 50-169h31l1 190h-30c-1-10 1-25-2-33-11 22-28 36-60 37" id="G"/><path d="M59-47c-2 24 18 29 38 22v24C64 9 27 4 27-40v-127H5v-23h24l9-43h21v43h35v23H59v120" id="H"/><g id="c"><use transform="matrix(0.07407407407407408,0,0,0.07407407407407408,0,0)" xlink:href="#D"/><use transform="matrix(0.07407407407407408,0,0,0.07407407407407408,14.814814814814817,0)" xlink:href="#E"/><use transform="matrix(0.07407407407407408,0,0,0.07407407407407408,28.148148148148152,0)" xlink:href="#D"/><use transform="matrix(0.07407407407407408,0,0,0.07407407407407408,42.96296296296297,0)" xlink:href="#F"/><use transform="matrix(0.07407407407407408,0,0,0.07407407407407408,56.296296296296305,0)" xlink:href="#G"/><use transform="matrix(0.07407407407407408,0,0,0.07407407407407408,71.11111111111111,0)" xlink:href="#H"/><use transform="matrix(0.07407407407407408,0,0,0.07407407407407408,78.51851851851852,0)" xlink:href="#D"/><use transform="matrix(0.07407407407407408,0,0,0.07407407407407408,93.33333333333334,0)" xlink:href="#B"/></g><path d="M190 0L58-211 59 0H30v-248h39L202-35l-2-213h31V0h-41" id="I"/><path d="M16-82v-28h88v28H16" id="J"/><path d="M205 0l-28-72H64L36 0H1l101-248h38L239 0h-34zm-38-99l-47-123c-12 45-31 82-46 123h93" id="K"/><path d="M33 0v-248h34V0H33" id="L"/><g id="d"><use transform="matrix(0.07407407407407408,0,0,0.07407407407407408,0,0)" xlink:href="#I"/><use transform="matrix(0.07407407407407408,0,0,0.07407407407407408,19.185185185185187,0)" xlink:href="#x"/><use transform="matrix(0.07407407407407408,0,0,0.07407407407407408,34,0)" xlink:href="#A"/><use transform="matrix(0.07407407407407408,0,0,0.07407407407407408,48.81481481481481,0)" xlink:href="#J"/><use transform="matrix(0.07407407407407408,0,0,0.07407407407407408,57.62962962962964,0)" xlink:href="#K"/><use transform="matrix(0.07407407407407408,0,0,0.07407407407407408,75.40740740740742,0)" xlink:href="#L"/></g><path d="M135-143c-3-34-86-38-87 0 15 53 115 12 119 90S17 21 10-45l28-5c4 36 97 45 98 0-10-56-113-15-118-90-4-57 82-63 122-42 12 7 21 19 24 35" id="M"/><g id="e"><use transform="matrix(0.07407407407407408,0,0,0.07407407407407408,0,0)" xlink:href="#G"/><use transform="matrix(0.07407407407407408,0,0,0.07407407407407408,14.814814814814817,0)" xlink:href="#M"/><use transform="matrix(0.07407407407407408,0,0,0.07407407407407408,28.148148148148152,0)" xlink:href="#D"/></g><path d="M24 0v-248h195v40H76v63h132v40H76v65h150V0H24" id="N"/><path d="M175 0L67-191c6 58 2 128 3 191H24v-248h59L193-55c-6-58-2-129-3-193h46V0h-61" id="O"/><path d="M24-248c120-7 223 5 221 122C244-46 201 0 124 0H24v-248zM76-40c74 7 117-18 117-86 0-67-45-88-117-82v168" id="P"/><g id="f"><use transform="matrix(0.07407407407407408,0,0,0.07407407407407408,0,0)" xlink:href="#N"/><use transform="matrix(0.07407407407407408,0,0,0.07407407407407408,17.77777777777778,0)" xlink:href="#O"/><use transform="matrix(0.07407407407407408,0,0,0.07407407407407408,36.96296296296296,0)" xlink:href="#P"/></g><g id="g"><use transform="matrix(0.07407407407407408,0,0,0.07407407407407408,0,0)" xlink:href="#K"/><use transform="matrix(0.07407407407407408,0,0,0.07407407407407408,17.77777777777778,0)" xlink:href="#L"/></g><path d="M30-248c87 1 191-15 191 75 0 78-77 80-158 76V0H30v-248zm33 125c57 0 124 11 124-50 0-59-68-47-124-48v98" id="Q"/><path d="M233-177c-1 41-23 64-60 70L243 0h-38l-65-103H63V0H30v-248c88 3 205-21 203 71zM63-129c60-2 137 13 137-47 0-61-80-42-137-45v92" id="R"/><path d="M140-251c81 0 123 46 123 126C263-46 219 4 140 4 59 4 17-45 17-125s42-126 123-126zm0 227c63 0 89-41 89-101s-29-99-89-99c-61 0-89 39-89 99S79-25 140-24" id="S"/><path d="M240 0l2-218c-23 76-54 145-80 218h-23L58-218 59 0H30v-248h44l77 211c21-75 51-140 76-211h43V0h-30" id="T"/><path d="M127-220V0H93v-220H8v-28h204v28h-85" id="U"/><g id="h"><use transform="matrix(0.07407407407407408,0,0,0.07407407407407408,0,0)" xlink:href="#Q"/><use transform="matrix(0.07407407407407408,0,0,0.07407407407407408,17.77777777777778,0)" xlink:href="#R"/><use transform="matrix(0.07407407407407408,0,0,0.07407407407407408,36.96296296296296,0)" xlink:href="#S"/><use transform="matrix(0.07407407407407408,0,0,0.07407407407407408,57.70370370370371,0)" xlink:href="#T"/><use transform="matrix(0.07407407407407408,0,0,0.07407407407407408,79.85185185185186,0)" xlink:href="#Q"/><use transform="matrix(0.07407407407407408,0,0,0.07407407407407408,97.62962962962965,0)" xlink:href="#U"/></g><path d="M169-182c-1-43-94-46-97-3 18 66 151 10 154 114 3 95-165 93-204 36-6-8-10-19-12-30l50-8c3 46 112 56 116 5-17-69-150-10-154-114-4-87 153-88 188-35 5 8 8 18 10 28" id="V"/><path d="M199 0l-22-63H83L61 0H9l90-248h61L250 0h-51zm-33-102l-36-108c-10 38-24 72-36 108h72" id="W"/><path d="M136-208V0H84v-208H4v-40h212v40h-80" id="X"/><path d="M67-125c0 53 21 87 73 88 37 1 54-22 65-47l45 17C233-25 199 4 140 4 58 4 20-42 15-125 8-235 124-281 211-232c18 10 29 29 36 50l-46 12c-8-25-30-41-62-41-52 0-71 34-72 86" id="Y"/><path d="M186 0v-106H76V0H24v-248h52v99h110v-99h50V0h-50" id="Z"/><g id="i"><use transform="matrix(0.07407407407407408,0,0,0.07407407407407408,0,0)" xlink:href="#V"/><use transform="matrix(0.07407407407407408,0,0,0.07407407407407408,17.77777777777778,0)" xlink:href="#O"/><use transform="matrix(0.07407407407407408,0,0,0.07407407407407408,36.96296296296296,0)" xlink:href="#W"/><use transform="matrix(0.07407407407407408,0,0,0.07407407407407408,54.14814814814815,0)" xlink:href="#X"/><use transform="matrix(0.07407407407407408,0,0,0.07407407407407408,70.37037037037038,0)" xlink:href="#Y"/><use transform="matrix(0.07407407407407408,0,0,0.07407407407407408,89.55555555555557,0)" xlink:href="#Z"/></g><path d="M101-251c82-7 93 87 43 132L82-64C71-53 59-42 53-27h129V0H18c2-99 128-94 128-182 0-28-16-43-45-43s-46 15-49 41l-32-3c6-41 34-60 81-64" id="aa"/><use transform="matrix(0.07407407407407408,0,0,0.07407407407407408,0,0)" xlink:href="#aa" id="j"/><path d="M185-189c-5-48-123-54-124 2 14 75 158 14 163 119 3 78-121 87-175 55-17-10-28-26-33-46l33-7c5 56 141 63 141-1 0-78-155-14-162-118-5-82 145-84 179-34 5 7 8 16 11 25" id="ab"/><g id="k"><use transform="matrix(0.07407407407407408,0,0,0.07407407407407408,0,0)" xlink:href="#S"/><use transform="matrix(0.07407407407407408,0,0,0.07407407407407408,20.740740740740744,0)" xlink:href="#ab"/><use transform="matrix(0.07407407407407408,0,0,0.07407407407407408,38.51851851851851,0)" xlink:href="#L"/><use transform="matrix(0.07407407407407408,0,0,0.07407407407407408,45.925925925925924,0)" xlink:href="#I"/><use transform="matrix(0.07407407407407408,0,0,0.07407407407407408,65.11111111111111,0)" xlink:href="#U"/></g><path d="M114-163C36-179 61-72 57 0H25l-1-190h30c1 12-1 29 2 39 6-27 23-49 58-41v29" id="ac"/><path d="M24 0v-261h32V0H24" id="ad"/><g id="l"><use transform="matrix(0.07407407407407408,0,0,0.07407407407407408,0,0)" xlink:href="#I"/><use transform="matrix(0.07407407407407408,0,0,0.07407407407407408,19.185185185185187,0)" xlink:href="#D"/><use transform="matrix(0.07407407407407408,0,0,0.07407407407407408,34,0)" xlink:href="#G"/><use transform="matrix(0.07407407407407408,0,0,0.07407407407407408,48.81481481481481,0)" xlink:href="#ac"/><use transform="matrix(0.07407407407407408,0,0,0.07407407407407408,57.62962962962964,0)" xlink:href="#z"/><use transform="matrix(0.07407407407407408,0,0,0.07407407407407408,72.44444444444446,0)" xlink:href="#ad"/></g><path d="M206 0h-36l-40-164L89 0H53L-1-190h32L70-26l43-164h34l41 164 42-164h31" id="ae"/><path d="M143 0L79-87 56-68V0H24v-261h32v163l83-92h37l-77 82L181 0h-38" id="af"/><g id="m"><use transform="matrix(0.07407407407407408,0,0,0.07407407407407408,0,0)" xlink:href="#I"/><use transform="matrix(0.07407407407407408,0,0,0.07407407407407408,19.185185185185187,0)" xlink:href="#D"/><use transform="matrix(0.07407407407407408,0,0,0.07407407407407408,34,0)" xlink:href="#H"/><use transform="matrix(0.07407407407407408,0,0,0.07407407407407408,41.407407407407405,0)" xlink:href="#ae"/><use transform="matrix(0.07407407407407408,0,0,0.07407407407407408,60.592592592592595,0)" xlink:href="#x"/><use transform="matrix(0.07407407407407408,0,0,0.07407407407407408,75.40740740740742,0)" xlink:href="#ac"/><use transform="matrix(0.07407407407407408,0,0,0.07407407407407408,84.22222222222223,0)" xlink:href="#af"/></g><path d="M24-231v-30h32v30H24zM24 0v-190h32V0H24" id="ag"/><g id="n"><use transform="matrix(0.07407407407407408,0,0,0.07407407407407408,0,0)" xlink:href="#K"/><use transform="matrix(0.07407407407407408,0,0,0.07407407407407408,17.77777777777778,0)" xlink:href="#G"/><use transform="matrix(0.07407407407407408,0,0,0.07407407407407408,32.592592592592595,0)" xlink:href="#H"/><use transform="matrix(0.07407407407407408,0,0,0.07407407407407408,40,0)" xlink:href="#x"/><use transform="matrix(0.07407407407407408,0,0,0.07407407407407408,54.81481481481482,0)" xlink:href="#y"/><use transform="matrix(0.07407407407407408,0,0,0.07407407407407408,76.96296296296296,0)" xlink:href="#z"/><use transform="matrix(0.07407407407407408,0,0,0.07407407407407408,91.77777777777777,0)" xlink:href="#H"/><use transform="matrix(0.07407407407407408,0,0,0.07407407407407408,99.18518518518518,0)" xlink:href="#ag"/><use transform="matrix(0.07407407407407408,0,0,0.07407407407407408,105.03703703703702,0)" xlink:href="#x"/><use transform="matrix(0.07407407407407408,0,0,0.07407407407407408,119.85185185185185,0)" xlink:href="#A"/></g><path d="M24-248c93 1 206-16 204 79-1 75-69 88-152 82V0H24v-248zm52 121c47 0 100 7 100-41 0-47-54-39-100-39v80" id="ah"/><path d="M133-34C117-15 103 5 69 4 32 3 11-16 11-54c-1-60 55-63 116-61 1-26-3-47-28-47-18 1-26 9-28 27l-52-2c7-38 36-58 82-57s74 22 75 68l1 82c-1 14 12 18 25 15v27c-30 8-71 5-69-32zm-48 3c29 0 43-24 42-57-32 0-66-3-65 30 0 17 8 27 23 27" id="ai"/><path d="M115-3C79 11 28 4 28-45v-112H4v-33h27l15-45h31v45h36v33H77v99c-1 23 16 31 38 25v30" id="aj"/><path d="M185-48c-13 30-37 53-82 52C43 2 14-33 14-96s30-98 90-98c62 0 83 45 84 108H66c0 31 8 55 39 56 18 0 30-7 34-22zm-45-69c5-46-57-63-70-21-2 6-4 13-4 21h74" id="ak"/><path d="M135-150c-39-12-60 13-60 57V0H25l-1-190h47c2 13-1 29 3 40 6-28 27-53 61-41v41" id="al"/><path d="M135-194c87-1 58 113 63 194h-50c-7-57 23-157-34-157-59 0-34 97-39 157H25l-1-190h47c2 12-1 28 3 38 12-26 28-41 61-42" id="am"/><g id="o"><use transform="matrix(0.07407407407407408,0,0,0.07407407407407408,0,0)" xlink:href="#ah"/><use transform="matrix(0.07407407407407408,0,0,0.07407407407407408,17.77777777777778,0)" xlink:href="#ai"/><use transform="matrix(0.07407407407407408,0,0,0.07407407407407408,32.592592592592595,0)" xlink:href="#aj"/><use transform="matrix(0.07407407407407408,0,0,0.07407407407407408,41.40740740740741,0)" xlink:href="#aj"/><use transform="matrix(0.07407407407407408,0,0,0.07407407407407408,50.22222222222223,0)" xlink:href="#ak"/><use transform="matrix(0.07407407407407408,0,0,0.07407407407407408,65.03703703703704,0)" xlink:href="#al"/><use transform="matrix(0.07407407407407408,0,0,0.07407407407407408,75.4074074074074,0)" xlink:href="#am"/></g><path d="M137-138c1-29-70-34-71-4 15 46 118 7 119 86 1 83-164 76-172 9l43-7c4 19 20 25 44 25 33 8 57-30 24-41C81-84 22-81 20-136c-2-80 154-74 161-7" id="an"/><path d="M190-63c-7 42-38 67-86 67-59 0-84-38-90-98-12-110 154-137 174-36l-49 2c-2-19-15-32-35-32-30 0-35 28-38 64-6 74 65 87 74 30" id="ao"/><path d="M114-157C55-157 80-60 75 0H25v-261h50l-1 109c12-26 28-41 61-42 86-1 58 113 63 194h-50c-7-57 23-157-34-157" id="ap"/><g id="p"><use transform="matrix(0.07407407407407408,0,0,0.07407407407407408,0,0)" xlink:href="#an"/><use transform="matrix(0.07407407407407408,0,0,0.07407407407407408,14.814814814814817,0)" xlink:href="#ak"/><use transform="matrix(0.07407407407407408,0,0,0.07407407407407408,29.629629629629633,0)" xlink:href="#ai"/><use transform="matrix(0.07407407407407408,0,0,0.07407407407407408,44.44444444444445,0)" xlink:href="#al"/><use transform="matrix(0.07407407407407408,0,0,0.07407407407407408,54.814814814814824,0)" xlink:href="#ao"/><use transform="matrix(0.07407407407407408,0,0,0.07407407407407408,69.62962962962965,0)" xlink:href="#ap"/></g><path d="M30 0v-248h187v28H63v79h144v27H63v87h162V0H30" id="aq"/><path d="M108 0H70L1-190h34L89-25l56-165h34" id="ar"/><g id="q"><use transform="matrix(0.07407407407407408,0,0,0.07407407407407408,0,0)" xlink:href="#aq"/><use transform="matrix(0.07407407407407408,0,0,0.07407407407407408,17.77777777777778,0)" xlink:href="#E"/><use transform="matrix(0.07407407407407408,0,0,0.07407407407407408,31.111111111111114,0)" xlink:href="#z"/><use transform="matrix(0.07407407407407408,0,0,0.07407407407407408,45.92592592592593,0)" xlink:href="#G"/><use transform="matrix(0.07407407407407408,0,0,0.07407407407407408,60.74074074074075,0)" xlink:href="#F"/><use transform="matrix(0.07407407407407408,0,0,0.07407407407407408,74.07407407407408,0)" xlink:href="#H"/><use transform="matrix(0.07407407407407408,0,0,0.07407407407407408,81.48148148148148,0)" xlink:href="#ag"/><use transform="matrix(0.07407407407407408,0,0,0.07407407407407408,87.33333333333333,0)" xlink:href="#ar"/><use transform="matrix(0.07407407407407408,0,0,0.07407407407407408,100.66666666666666,0)" xlink:href="#D"/></g><path d="M106-169C34-169 62-67 57 0H25v-261h32l-1 103c12-21 28-36 61-36 89 0 53 116 60 194h-32v-121c2-32-8-49-39-48" id="as"/><g id="r"><use transform="matrix(0.07407407407407408,0,0,0.07407407407407408,0,0)" xlink:href="#M"/><use transform="matrix(0.07407407407407408,0,0,0.07407407407407408,13.333333333333336,0)" xlink:href="#D"/><use transform="matrix(0.07407407407407408,0,0,0.07407407407407408,28.148148148148152,0)" xlink:href="#z"/><use transform="matrix(0.07407407407407408,0,0,0.07407407407407408,42.96296296296297,0)" xlink:href="#ac"/><use transform="matrix(0.07407407407407408,0,0,0.07407407407407408,51.777777777777786,0)" xlink:href="#F"/><use transform="matrix(0.07407407407407408,0,0,0.07407407407407408,65.11111111111111,0)" xlink:href="#as"/></g><g id="s"><use transform="matrix(0.07407407407407408,0,0,0.07407407407407408,0,0)" xlink:href="#P"/><use transform="matrix(0.07407407407407408,0,0,0.07407407407407408,19.185185185185187,0)" xlink:href="#ai"/><use transform="matrix(0.07407407407407408,0,0,0.07407407407407408,34,0)" xlink:href="#aj"/><use transform="matrix(0.07407407407407408,0,0,0.07407407407407408,42.814814814814824,0)" xlink:href="#ai"/></g><path d="M110-194c64 0 96 36 96 99 0 64-35 99-97 99-61 0-95-36-95-99 0-62 34-99 96-99zm-1 164c35 0 45-28 45-65 0-40-10-65-43-65-34 0-45 26-45 65 0 36 10 65 43 65" id="at"/><path d="M25 0v-261h50V0H25" id="au"/><path d="M25-224v-37h50v37H25zM25 0v-190h50V0H25" id="av"/><g id="t"><use transform="matrix(0.07407407407407408,0,0,0.07407407407407408,0,0)" xlink:href="#ao"/><use transform="matrix(0.07407407407407408,0,0,0.07407407407407408,14.814814814814817,0)" xlink:href="#at"/><use transform="matrix(0.07407407407407408,0,0,0.07407407407407408,31.03703703703704,0)" xlink:href="#au"/><use transform="matrix(0.07407407407407408,0,0,0.07407407407407408,38.44444444444445,0)" xlink:href="#au"/><use transform="matrix(0.07407407407407408,0,0,0.07407407407407408,45.851851851851855,0)" xlink:href="#ak"/><use transform="matrix(0.07407407407407408,0,0,0.07407407407407408,60.66666666666667,0)" xlink:href="#ao"/><use transform="matrix(0.07407407407407408,0,0,0.07407407407407408,75.4814814814815,0)" xlink:href="#aj"/><use transform="matrix(0.07407407407407408,0,0,0.07407407407407408,84.2962962962963,0)" xlink:href="#av"/><use transform="matrix(0.07407407407407408,0,0,0.07407407407407408,91.70370370370371,0)" xlink:href="#at"/><use transform="matrix(0.07407407407407408,0,0,0.07407407407407408,107.92592592592594,0)" xlink:href="#am"/></g><path d="M88-194c31-1 46 15 58 34l-1-101h50l1 261h-48c-2-10 0-23-3-31C134-8 116 4 84 4 32 4 16-41 15-95c0-56 19-97 73-99zm17 164c33 0 40-30 41-66 1-37-9-64-41-64s-38 30-39 65c0 43 13 65 39 65" id="aw"/><g id="u"><use transform="matrix(0.07407407407407408,0,0,0.07407407407407408,0,0)" xlink:href="#ai"/><use transform="matrix(0.07407407407407408,0,0,0.07407407407407408,14.814814814814817,0)" xlink:href="#am"/><use transform="matrix(0.07407407407407408,0,0,0.07407407407407408,31.03703703703704,0)" xlink:href="#aw"/></g><path d="M85 4C-2 5 27-109 22-190h50c7 57-23 150 33 157 60-5 35-97 40-157h50l1 190h-47c-2-12 1-28-3-38-12 25-28 42-61 42" id="ax"/><path d="M195-6C206 82 75 100 31 46c-4-6-6-13-8-21l49-6c3 16 16 24 34 25 40 0 42-37 40-79-11 22-30 35-61 35-53 0-70-43-70-97 0-56 18-96 73-97 30 0 46 14 59 34l2-30h47zm-90-29c32 0 41-27 41-63 0-35-9-62-40-62-32 0-39 29-40 63 0 36 9 62 39 62" id="ay"/><g id="v"><use transform="matrix(0.07407407407407408,0,0,0.07407407407407408,0,0)" xlink:href="#an"/><use transform="matrix(0.07407407407407408,0,0,0.07407407407407408,14.814814814814817,0)" xlink:href="#aj"/><use transform="matrix(0.07407407407407408,0,0,0.07407407407407408,23.629629629629633,0)" xlink:href="#al"/><use transform="matrix(0.07407407407407408,0,0,0.07407407407407408,34.00000000000001,0)" xlink:href="#ax"/><use transform="matrix(0.07407407407407408,0,0,0.07407407407407408,50.22222222222223,0)" xlink:href="#ao"/><use transform="matrix(0.07407407407407408,0,0,0.07407407407407408,65.03703703703704,0)" xlink:href="#aj"/><use transform="matrix(0.07407407407407408,0,0,0.07407407407407408,73.85185185185185,0)" xlink:href="#ax"/><use transform="matrix(0.07407407407407408,0,0,0.07407407407407408,90.07407407407408,0)" xlink:href="#al"/><use transform="matrix(0.07407407407407408,0,0,0.07407407407407408,100.44444444444444,0)" xlink:href="#av"/><use transform="matrix(0.07407407407407408,0,0,0.07407407407407408,107.85185185185185,0)" xlink:href="#am"/><use transform="matrix(0.07407407407407408,0,0,0.07407407407407408,124.07407407407408,0)" xlink:href="#ay"/></g></defs></g></svg>