<svg xmlns="http://www.w3.org/2000/svg" xmlns:xlink="http://www.w3.org/1999/xlink" xmlns:lucid="lucid" width="3381.36" height="284.83"><g transform="translate(321.2577381086823 -340.2482218749259)" lucid:page-tab-id="0_0"><path d="M-500 0h4000v1000H-500z" fill="#f2f3f5"/><path d="M388.65 360.25H604.5v61.6H388.66z" fill="none"/><use xlink:href="#a" transform="matrix(1,0,0,1,408.65226189131766,383.2482218749259) translate(0 14.6)"/><use xlink:href="#b" transform="matrix(1,0,0,1,408.65226189131766,383.2482218749259) translate(87.85000000000001 14.6)"/><use xlink:href="#c" transform="matrix(1,0,0,1,408.65226189131766,383.2482218749259) translate(102.85000000000001 14.6)"/><path d="M98.74 360.25h129.9v61.6H98.75z" fill="none"/><use xlink:href="#d" transform="matrix(1,0,0,1,118.7422618913177,383.2482218749259) translate(0 14.6)"/><use xlink:href="#e" transform="matrix(1,0,0,1,118.7422618913177,383.2482218749259) translate(60.900000000000006 14.6)"/><path d="M764.5 360.25h77.92v61.6h-77.9z" fill="none"/><use xlink:href="#f" transform="matrix(1,0,0,1,784.5122618913176,383.2482218749259) translate(0 14.6)"/><path d="M719.26 528.52l5.7.12 7.2.45 6.46.66 5.87.87 5.42 1.03 5.12 1.2 4.9 1.37 4.8 1.56 4.84 1.8 5.08 2.13 5.7 2.7 7.8 4.08 25 13.82 5.7 2.7 5.08 2.13 4.84 1.8 4.8 1.56 4.9 1.38 5.12 1.2 5.43 1.03 5.88.88 6.46.67 7.2.46 5.7.12" stroke="#fc9432" stroke-width="5" stroke-linejoin="round" fill="none"/><path d="M719.38 526.05l-.1 4.95-2.52-.06V526zM876.76 571.8v4.95h-2.56v-4.95z" stroke="#fc9432" stroke-width=".05" fill="#fc9432"/><path d="M240.1 528.47h155" stroke="#fc9432" stroke-width="5" stroke-linejoin="round" fill="none"/><path d="M240.17 530.94h-2.57V526h2.57zM397.6 530.94h-2.56V526h2.56z" stroke="#fc9432" stroke-width=".05" fill="#fc9432"/><path d="M-58.76 459.8l3.1.08 5.1.32 4.74.5 4.43.65 4.17.8 3.97.92 3.8 1.06 3.68 1.2 3.6 1.34 3.56 1.5 3.57 1.67 3.63 1.9 3.78 2.18 4.03 2.57 4.53 3.14 5.64 4.3 29.98 24.64 4.54 3.16 4.03 2.57 3.77 2.2 3.63 1.9 3.57 1.67 3.57 1.5 3.6 1.33 3.68 1.2 3.8 1.06 3.96.93 4.18.78 4.42.66 4.74.5 5.1.3 3.1.08" stroke="#fc9432" stroke-width="5" stroke-linejoin="round" fill="none"/><path d="M-58.64 457.34l-.1 4.95-2.7-.07.18-2.47-.2-2.48zM98.74 526v4.94h-2.56V526z" stroke="#fc9432" stroke-width=".05" fill="#fc9432"/><path d="M607 391.05h155" stroke="#ffe342" stroke-width="5" stroke-linejoin="round" fill="none"/><path d="M607.08 393.53h-2.57v-4.95h2.58zM764.5 393.53h-2.55v-4.95h2.56z" stroke="#ffe342" stroke-width=".05" fill="#ffe342"/><path d="M98.74 497.66H237.6v61.6H98.74z" fill="none"/><use xlink:href="#g" transform="matrix(1,0,0,1,118.7422618913177,520.663221874926) translate(0 14.6)"/><use xlink:href="#h" transform="matrix(1,0,0,1,118.7422618913177,520.663221874926) translate(22 14.6)"/><path d="M-301.26 459.76a40 40 0 0 1 40-40h160a40 40 0 0 1 40 40 40 40 0 0 1-40 40h-160a40 40 0 0 1-40-40z" fill="#fff"/><use xlink:href="#i" transform="matrix(1,0,0,1,-301.2577381086823,419.7607218749259) translate(79.22222222222223 44)"/><path d="M876.76 543.47h215.86v61.6H876.76z" fill="none"/><use xlink:href="#a" transform="matrix(1,0,0,1,896.7622618913176,566.4682218749258) translate(0 14.6)"/><use xlink:href="#j" transform="matrix(1,0,0,1,896.7622618913176,566.4682218749258) translate(87.85000000000001 14.6)"/><use xlink:href="#c" transform="matrix(1,0,0,1,896.7622618913176,566.4682218749258) translate(102.85000000000001 14.6)"/><path d="M876.76 451.86h215.86v61.6H876.76z" fill="none"/><use xlink:href="#a" transform="matrix(1,0,0,1,896.7622618913176,474.85822187492585) translate(0 14.6)"/><use xlink:href="#b" transform="matrix(1,0,0,1,896.7622618913176,474.85822187492585) translate(87.85000000000001 14.6)"/><use xlink:href="#c" transform="matrix(1,0,0,1,896.7622618913176,474.85822187492585) translate(102.85000000000001 14.6)"/><path d="M231.16 391.05h155" stroke="#ffe342" stroke-width="5" stroke-linejoin="round" fill="none"/><path d="M231.22 393.53h-2.57v-4.95h2.57zM388.65 393.53h-2.56v-4.95h2.55z" stroke="#ffe342" stroke-width=".05" fill="#ffe342"/><path d="M397.6 497.66h319.16v61.6H397.6z" fill="none"/><use xlink:href="#k" transform="matrix(1,0,0,1,417.60226189131777,520.663221874926) translate(0 14.6)"/><use xlink:href="#l" transform="matrix(1,0,0,1,417.60226189131777,520.663221874926) translate(59.550000000000004 14.6)"/><use xlink:href="#m" transform="matrix(1,0,0,1,417.60226189131777,520.663221874926) translate(117.4 14.6)"/><use xlink:href="#n" transform="matrix(1,0,0,1,417.60226189131777,520.663221874926) translate(188.25 14.6)"/><path d="M-58.76 459.7l3.1-.06 5.1-.3 4.74-.5 4.43-.66 4.17-.8 3.97-.93 3.8-1.06 3.68-1.2 3.6-1.34 3.56-1.5 3.57-1.68 3.63-1.9 3.78-2.18 4.03-2.57 4.53-3.15 5.64-4.3 29.98-24.64 4.54-3.16 4.03-2.56 3.77-2.2 3.63-1.88 3.57-1.7 3.57-1.48 3.6-1.34 3.68-1.2 3.8-1.06 3.96-.93 4.18-.8 4.42-.64 4.74-.5 5.1-.33 3.1-.06" stroke="#ffe342" stroke-width="5" stroke-linejoin="round" fill="none"/><path d="M-58.64 462.18l-2.8.06.18-2.48-.2-2.47 2.72-.07zM98.74 393.53h-2.56v-4.95h2.56z" stroke="#ffe342" stroke-width=".05" fill="#ffe342"/><path d="M719.26 528.42l5.7-.12 7.2-.45 6.46-.68 5.87-.86 5.42-1.03 5.12-1.2 4.9-1.37 4.8-1.56 4.84-1.8 5.08-2.13 5.7-2.68 7.8-4.1 25-13.8 5.7-2.7 5.08-2.13 4.84-1.8 4.8-1.57 4.9-1.37 5.12-1.2 5.43-1.04 5.88-.86 6.46-.68 7.2-.45 5.7-.12" stroke="#fc9432" stroke-width="5" stroke-linejoin="round" fill="none"/><path d="M719.38 530.9l-2.62.04V526l2.52-.06zM876.76 485.14h-2.56v-4.95h2.56z" stroke="#fc9432" stroke-width=".05" fill="#fc9432"/><path d="M388.65 360.25H604.5v61.6H388.66z" fill="none"/><use xlink:href="#a" transform="matrix(1,0,0,1,408.65226189131766,383.2482218749259) translate(0 14.6)"/><use xlink:href="#b" transform="matrix(1,0,0,1,408.65226189131766,383.2482218749259) translate(87.85000000000001 14.6)"/><use xlink:href="#c" transform="matrix(1,0,0,1,408.65226189131766,383.2482218749259) translate(102.85000000000001 14.6)"/><path d="M98.74 360.25h129.9v61.6H98.75z" fill="none"/><use xlink:href="#d" transform="matrix(1,0,0,1,118.7422618913177,383.2482218749259) translate(0 14.6)"/><use xlink:href="#e" transform="matrix(1,0,0,1,118.7422618913177,383.2482218749259) translate(60.900000000000006 14.6)"/><path d="M764.5 360.25h77.92v61.6h-77.9z" fill="none"/><use xlink:href="#f" transform="matrix(1,0,0,1,784.5122618913176,383.2482218749259) translate(0 14.6)"/><path d="M719.26 528.52l5.7.12 7.2.45 6.46.66 5.87.87 5.42 1.03 5.12 1.2 4.9 1.37 4.8 1.56 4.84 1.8 5.08 2.13 5.7 2.7 7.8 4.08 25 13.82 5.7 2.7 5.08 2.13 4.84 1.8 4.8 1.56 4.9 1.38 5.12 1.2 5.43 1.03 5.88.88 6.46.67 7.2.46 5.7.12" stroke="#fc9432" stroke-width="5" stroke-linejoin="round" fill="none"/><path d="M719.38 526.05l-.1 4.95-2.52-.06V526zM876.76 571.8v4.95h-2.56v-4.95z" stroke="#fc9432" stroke-width=".05" fill="#fc9432"/><path d="M240.1 528.47h155" stroke="#fc9432" stroke-width="5" stroke-linejoin="round" fill="none"/><path d="M240.17 530.94h-2.57V526h2.57zM397.6 530.94h-2.56V526h2.56z" stroke="#fc9432" stroke-width=".05" fill="#fc9432"/><path d="M-58.76 459.8l3.1.08 5.1.32 4.74.5 4.43.65 4.17.8 3.97.92 3.8 1.06 3.68 1.2 3.6 1.34 3.56 1.5 3.57 1.67 3.63 1.9 3.78 2.18 4.03 2.57 4.53 3.14 5.64 4.3 29.98 24.64 4.54 3.16 4.03 2.57 3.77 2.2 3.63 1.9 3.57 1.67 3.57 1.5 3.6 1.33 3.68 1.2 3.8 1.06 3.96.93 4.18.78 4.42.66 4.74.5 5.1.3 3.1.08" stroke="#fc9432" stroke-width="5" stroke-linejoin="round" fill="none"/><path d="M-58.64 457.34l-.1 4.95-2.7-.07.18-2.47-.2-2.48zM98.74 526v4.94h-2.56V526z" stroke="#fc9432" stroke-width=".05" fill="#fc9432"/><path d="M607 391.05h155" stroke="#ffe342" stroke-width="5" stroke-linejoin="round" fill="none"/><path d="M607.08 393.53h-2.57v-4.95h2.58zM764.5 393.53h-2.55v-4.95h2.56z" stroke="#ffe342" stroke-width=".05" fill="#ffe342"/><path d="M98.74 497.66H237.6v61.6H98.74z" fill="none"/><use xlink:href="#g" transform="matrix(1,0,0,1,118.7422618913177,520.663221874926) translate(0 14.6)"/><use xlink:href="#h" transform="matrix(1,0,0,1,118.7422618913177,520.663221874926) translate(22 14.6)"/><path d="M-301.26 459.76a40 40 0 0 1 40-40h160a40 40 0 0 1 40 40 40 40 0 0 1-40 40h-160a40 40 0 0 1-40-40z" fill="#fff"/><use xlink:href="#i" transform="matrix(1,0,0,1,-301.2577381086823,419.7607218749259) translate(79.22222222222223 44)"/><path d="M876.76 543.47h215.86v61.6H876.76z" fill="none"/><use xlink:href="#a" transform="matrix(1,0,0,1,896.7622618913176,566.4682218749258) translate(0 14.6)"/><use xlink:href="#j" transform="matrix(1,0,0,1,896.7622618913176,566.4682218749258) translate(87.85000000000001 14.6)"/><use xlink:href="#c" transform="matrix(1,0,0,1,896.7622618913176,566.4682218749258) translate(102.85000000000001 14.6)"/><path d="M876.76 451.86h215.86v61.6H876.76z" fill="none"/><use xlink:href="#a" transform="matrix(1,0,0,1,896.7622618913176,474.85822187492585) translate(0 14.6)"/><use xlink:href="#b" transform="matrix(1,0,0,1,896.7622618913176,474.85822187492585) translate(87.85000000000001 14.6)"/><use xlink:href="#c" transform="matrix(1,0,0,1,896.7622618913176,474.85822187492585) translate(102.85000000000001 14.6)"/><path d="M231.16 391.05h155" stroke="#ffe342" stroke-width="5" stroke-linejoin="round" fill="none"/><path d="M231.22 393.53h-2.57v-4.95h2.57zM388.65 393.53h-2.56v-4.95h2.55z" stroke="#ffe342" stroke-width=".05" fill="#ffe342"/><path d="M397.6 497.66h319.16v61.6H397.6z" fill="none"/><use xlink:href="#k" transform="matrix(1,0,0,1,417.60226189131777,520.663221874926) translate(0 14.6)"/><use xlink:href="#l" transform="matrix(1,0,0,1,417.60226189131777,520.663221874926) translate(59.550000000000004 14.6)"/><use xlink:href="#m" transform="matrix(1,0,0,1,417.60226189131777,520.663221874926) translate(117.4 14.6)"/><use xlink:href="#n" transform="matrix(1,0,0,1,417.60226189131777,520.663221874926) translate(188.25 14.6)"/><path d="M-58.76 459.7l3.1-.06 5.1-.3 4.74-.5 4.43-.66 4.17-.8 3.97-.93 3.8-1.06 3.68-1.2 3.6-1.34 3.56-1.5 3.57-1.68 3.63-1.9 3.78-2.18 4.03-2.57 4.53-3.15 5.64-4.3 29.98-24.64 4.54-3.16 4.03-2.56 3.77-2.2 3.63-1.88 3.57-1.7 3.57-1.48 3.6-1.34 3.68-1.2 3.8-1.06 3.96-.93 4.18-.8 4.42-.64 4.74-.5 5.1-.33 3.1-.06" stroke="#ffe342" stroke-width="5" stroke-linejoin="round" fill="none"/><path d="M-58.64 462.18l-2.8.06.18-2.48-.2-2.47 2.72-.07zM98.74 393.53h-2.56v-4.95h2.56z" stroke="#ffe342" stroke-width=".05" fill="#ffe342"/><path d="M719.26 528.42l5.7-.12 7.2-.45 6.46-.68 5.87-.86 5.42-1.03 5.12-1.2 4.9-1.37 4.8-1.56 4.84-1.8 5.08-2.13 5.7-2.68 7.8-4.1 25-13.8 5.7-2.7 5.08-2.13 4.84-1.8 4.8-1.57 4.9-1.37 5.12-1.2 5.43-1.04 5.88-.86 6.46-.68 7.2-.45 5.7-.12" stroke="#fc9432" stroke-width="5" stroke-linejoin="round" fill="none"/><path d="M719.38 530.9l-2.62.04V526l2.52-.06zM876.76 485.14h-2.56v-4.95h2.56z" stroke="#fc9432" stroke-width=".05" fill="#fc9432"/><path d="M1978.28 543.47h215.86v61.6h-215.86z" fill="none"/><use xlink:href="#a" transform="matrix(1,0,0,1,1998.2784822308727,566.4682218749259) translate(0 14.6)"/><use xlink:href="#j" transform="matrix(1,0,0,1,1998.2784822308727,566.4682218749259) translate(87.85000000000001 14.6)"/><use xlink:href="#c" transform="matrix(1,0,0,1,1998.2784822308727,566.4682218749259) translate(102.85000000000001 14.6)"/><path d="M1241.37 528.47a40 40 0 0 1 40-40h160a40 40 0 0 1 40 40 40 40 0 0 1-40 40h-160a40 40 0 0 1-40-40z" fill="#fff"/><use xlink:href="#o" transform="matrix(1,0,0,1,1241.3684822308728,488.4682218749259) translate(50.66666666666667 44)"/><use xlink:href="#p" transform="matrix(1,0,0,1,1241.3684822308728,488.4682218749259) translate(124.94444444444444 44)"/><path d="M1641.37 497.66h176.9v61.6h-176.9z" fill="none"/><use xlink:href="#q" transform="matrix(1,0,0,1,1661.3684822308728,520.6632218749259) translate(0 14.6)"/><use xlink:href="#r" transform="matrix(1,0,0,1,1661.3684822308728,520.6632218749259) translate(82.95 14.6)"/><path d="M1978.28 451.86h215.86v61.6h-215.86z" fill="none"/><use xlink:href="#a" transform="matrix(1,0,0,1,1998.2784822308727,474.8582218749259) translate(0 14.6)"/><use xlink:href="#b" transform="matrix(1,0,0,1,1998.2784822308727,474.8582218749259) translate(87.85000000000001 14.6)"/><use xlink:href="#c" transform="matrix(1,0,0,1,1998.2784822308727,474.8582218749259) translate(102.85000000000001 14.6)"/><path d="M1820.78 528.52l5.7.12 7.2.45 6.45.66 5.88.87 5.44 1.03 5.12 1.2 4.9 1.37 4.8 1.56 4.84 1.8 5.07 2.13 5.7 2.7 7.8 4.08 25 13.82 5.7 2.7 5.1 2.13 4.83 1.8 4.8 1.56 4.9 1.38 5.12 1.2 5.43 1.03 5.87.88 6.46.67 7.2.46 5.7.12" stroke="#635dff" stroke-width="5" stroke-linejoin="round" fill="none"/><path d="M1820.9 526.05l-.1 4.95-2.52-.06V526zM1978.28 571.8v4.95h-2.57v-4.95z" stroke="#635dff" stroke-width=".05" fill="#635dff"/><path d="M1483.87 528.47h155" stroke="#635dff" stroke-width="5" stroke-linejoin="round" fill="none"/><path d="M1483.93 530.94h-2.76l.2-2.47-.2-2.48h2.76zM1641.37 530.94h-2.57V526h2.57z" stroke="#635dff" stroke-width=".05" fill="#635dff"/><path d="M1820.78 528.42l5.7-.12 7.2-.45 6.45-.68 5.88-.86 5.44-1.03 5.12-1.2 4.9-1.37 4.8-1.56 4.84-1.8 5.07-2.13 5.7-2.68 7.8-4.1 25-13.8 5.7-2.7 5.1-2.13 4.83-1.8 4.8-1.57 4.9-1.37 5.12-1.2 5.43-1.04 5.87-.86 6.46-.68 7.2-.45 5.7-.12" stroke="#635dff" stroke-width="5" stroke-linejoin="round" fill="none"/><path d="M1820.9 530.9l-2.62.04V526l2.5-.06zM1978.28 485.14h-2.57v-4.95h2.58z" stroke="#635dff" stroke-width=".05" fill="#635dff"/><path d="M1978.28 543.47h215.86v61.6h-215.86z" fill="none"/><use xlink:href="#a" transform="matrix(1,0,0,1,1998.2784822308727,566.4682218749259) translate(0 14.6)"/><use xlink:href="#j" transform="matrix(1,0,0,1,1998.2784822308727,566.4682218749259) translate(87.85000000000001 14.6)"/><use xlink:href="#c" transform="matrix(1,0,0,1,1998.2784822308727,566.4682218749259) translate(102.85000000000001 14.6)"/><path d="M1241.37 528.47a40 40 0 0 1 40-40h160a40 40 0 0 1 40 40 40 40 0 0 1-40 40h-160a40 40 0 0 1-40-40z" fill="#fff"/><use xlink:href="#o" transform="matrix(1,0,0,1,1241.3684822308728,488.4682218749259) translate(50.66666666666667 44)"/><use xlink:href="#p" transform="matrix(1,0,0,1,1241.3684822308728,488.4682218749259) translate(124.94444444444444 44)"/><path d="M1641.37 497.66h176.9v61.6h-176.9z" fill="none"/><use xlink:href="#q" transform="matrix(1,0,0,1,1661.3684822308728,520.6632218749259) translate(0 14.6)"/><use xlink:href="#r" transform="matrix(1,0,0,1,1661.3684822308728,520.6632218749259) translate(82.95 14.6)"/><path d="M1978.28 451.86h215.86v61.6h-215.86z" fill="none"/><use xlink:href="#a" transform="matrix(1,0,0,1,1998.2784822308727,474.8582218749259) translate(0 14.6)"/><use xlink:href="#b" transform="matrix(1,0,0,1,1998.2784822308727,474.8582218749259) translate(87.85000000000001 14.6)"/><use xlink:href="#c" transform="matrix(1,0,0,1,1998.2784822308727,474.8582218749259) translate(102.85000000000001 14.6)"/><path d="M1820.78 528.52l5.7.12 7.2.45 6.45.66 5.88.87 5.44 1.03 5.12 1.2 4.9 1.37 4.8 1.56 4.84 1.8 5.07 2.13 5.7 2.7 7.8 4.08 25 13.82 5.7 2.7 5.1 2.13 4.83 1.8 4.8 1.56 4.9 1.38 5.12 1.2 5.43 1.03 5.87.88 6.46.67 7.2.46 5.7.12" stroke="#635dff" stroke-width="5" stroke-linejoin="round" fill="none"/><path d="M1820.9 526.05l-.1 4.95-2.52-.06V526zM1978.28 571.8v4.95h-2.57v-4.95z" stroke="#635dff" stroke-width=".05" fill="#635dff"/><path d="M1483.87 528.47h155" stroke="#635dff" stroke-width="5" stroke-linejoin="round" fill="none"/><path d="M1483.93 530.94h-2.76l.2-2.47-.2-2.48h2.76zM1641.37 530.94h-2.57V526h2.57z" stroke="#635dff" stroke-width=".05" fill="#635dff"/><path d="M1820.78 528.42l5.7-.12 7.2-.45 6.45-.68 5.88-.86 5.44-1.03 5.12-1.2 4.9-1.37 4.8-1.56 4.84-1.8 5.07-2.13 5.7-2.68 7.8-4.1 25-13.8 5.7-2.7 5.1-2.13 4.83-1.8 4.8-1.57 4.9-1.37 5.12-1.2 5.43-1.04 5.87-.86 6.46-.68 7.2-.45 5.7-.12" stroke="#635dff" stroke-width="5" stroke-linejoin="round" fill="none"/><path d="M1820.9 530.9l-2.62.04V526l2.5-.06zM1978.28 485.14h-2.57v-4.95h2.58z" stroke="#635dff" stroke-width=".05" fill="#635dff"/><path d="M1095.12 482.7l4.62.1 6.3.4 5.7.6 5.2.77 4.82.92 4.54 1.05 4.35 1.2 4.24 1.4 4.2 1.56 4.33 1.83 4.63 2.18 5.4 2.84 8.4 4.9 18.67 11.15 5.4 2.82 4.63 2.18 4.33 1.82 4.2 1.57 4.24 1.37 4.35 1.2 4.53 1.08 4.83.92 5.2.76 5.68.6 6.3.4 4.63.1" stroke="#e08fff" stroke-width="5" stroke-linejoin="round" fill="none"/><path d="M1095.24 480.24l-.1 4.95-2.52-.06v-4.95zM1241.56 526l-.2 2.47.2 2.47h-2.76V526z" stroke="#e08fff" stroke-width=".05" fill="#e08fff"/><path d="M1095.12 574.22l4.62-.1 6.3-.4 5.7-.58 5.2-.77 4.82-.92 4.54-1.06 4.35-1.23 4.24-1.37 4.2-1.57 4.33-1.82 4.63-2.17 5.4-2.83 8.4-4.9 18.67-11.16 5.4-2.83 4.63-2.17 4.33-1.82 4.2-1.55 4.24-1.38 4.35-1.2 4.53-1.08 4.83-.93 5.2-.76 5.68-.6 6.3-.4 4.63-.08" stroke="#e08fff" stroke-width="5" stroke-linejoin="round" fill="none"/><path d="M1095.24 576.7l-2.62.05v-4.95l2.52-.05zM1241.37 528.47l.2 2.47h-2.77V526h2.76z" stroke="#e08fff" stroke-width=".05" fill="#e08fff"/><path d="M2962.2 488.47h77.9v61.6h-77.9z" fill="none"/><g><use xlink:href="#f" transform="matrix(1,0,0,1,2982.192099878547,511.4682218749259) translate(0 14.6)"/></g><path d="M2476.5 519.27a40 40 0 0 1 40-40h245.7a40 40 0 0 1 40 40 40 40 0 0 1-40 40H2516.5a40 40 0 0 1-40-40z" fill="#fff"/><g><use xlink:href="#s" transform="matrix(1,0,0,1,2476.5154332118805,479.27322187492587) translate(16.166666666666657 44)"/><use xlink:href="#t" transform="matrix(1,0,0,1,2476.5154332118805,479.27322187492587) translate(64.94444444444444 44)"/><use xlink:href="#u" transform="matrix(1,0,0,1,2476.5154332118805,479.27322187492587) translate(163.61111111111111 44)"/><use xlink:href="#v" transform="matrix(1,0,0,1,2476.5154332118805,479.27322187492587) translate(204.61111111111111 44)"/></g><path d="M2804.7 519.27h155" stroke="#635dff" stroke-width="5" stroke-linejoin="round" fill="none"/><path d="M2804.76 521.75H2802l.2-2.48-.2-2.47h2.76zM2962.2 521.75h-2.57v-4.95h2.56z" stroke="#635dff" stroke-width=".05" fill="#635dff"/><path d="M2962.2 488.47h77.9v61.6h-77.9z" fill="none"/><g><use xlink:href="#f" transform="matrix(1,0,0,1,2982.192099878547,511.4682218749259) translate(0 14.6)"/></g><path d="M2476.5 519.27a40 40 0 0 1 40-40h245.7a40 40 0 0 1 40 40 40 40 0 0 1-40 40H2516.5a40 40 0 0 1-40-40z" fill="#fff"/><g><use xlink:href="#s" transform="matrix(1,0,0,1,2476.5154332118805,479.27322187492587) translate(16.166666666666657 44)"/><use xlink:href="#t" transform="matrix(1,0,0,1,2476.5154332118805,479.27322187492587) translate(64.94444444444444 44)"/><use xlink:href="#u" transform="matrix(1,0,0,1,2476.5154332118805,479.27322187492587) translate(163.61111111111111 44)"/><use xlink:href="#v" transform="matrix(1,0,0,1,2476.5154332118805,479.27322187492587) translate(204.61111111111111 44)"/></g><path d="M2804.7 519.27h155" stroke="#635dff" stroke-width="5" stroke-linejoin="round" fill="none"/><path d="M2804.76 521.75H2802l.2-2.48-.2-2.47h2.76zM2962.2 521.75h-2.57v-4.95h2.56z" stroke="#635dff" stroke-width=".05" fill="#635dff"/><path d="M2196.64 482.7l32.54.68 32.64 2.06 35.54 3.76 175.16 23.9 1.96.16" stroke="#00c2a8" stroke-width="5" stroke-linejoin="round" fill="none"/><path d="M2196.76 480.24l-.1 4.95-2.52-.06v-4.95zM2477.5 511.03l-.5 2-.22 2.9-2.57-.2.42-4.94z" stroke="#00c2a8" stroke-width=".05" fill="#00c2a8"/><path d="M2474 519.32l-18.1.37-17.2 1.06-14.87 1.56-13.25 1.95-12.22 2.33-11.75 2.76-12 3.35-13.75 4.5-64.8 23.64-12 3.35-11.76 2.75-12.23 2.32-13.24 1.96-14.86 1.55-17.22 1.08-18.1.36" stroke="#00c2a8" stroke-width="5" stroke-linejoin="round" fill="none"/><path d="M2476.5 519.27h.02l.2 2.48-2.72.05-.1-4.95 2.8-.06zM2196.7 576.75h-2.56v-4.95h2.56z" stroke="#00c2a8" stroke-width=".05" fill="#00c2a8"/><defs><path d="M212-179c-10-28-35-45-73-45-59 0-87 40-87 99 0 60 29 101 89 101 43 0 62-24 78-52l27 14C228-24 195 4 139 4 59 4 22-46 18-125c-6-104 99-153 187-111 19 9 31 26 39 46" id="w"/><path d="M100-194c62-1 85 37 85 99 1 63-27 99-86 99S16-35 15-95c0-66 28-99 85-99zM99-20c44 1 53-31 53-75 0-43-8-75-51-75s-53 32-53 75 10 74 51 75" id="x"/><path d="M210-169c-67 3-38 105-44 169h-31v-121c0-29-5-50-35-48C34-165 62-65 56 0H25l-1-190h30c1 10-1 24 2 32 10-44 99-50 107 0 11-21 27-35 58-36 85-2 47 119 55 194h-31v-121c0-29-5-49-35-48" id="y"/><path d="M141-36C126-15 110 5 73 4 37 3 15-17 15-53c-1-64 63-63 125-63 3-35-9-54-41-54-24 1-41 7-42 31l-33-3c5-37 33-52 76-52 45 0 72 20 72 64v82c-1 20 7 32 28 27v20c-31 9-61-2-59-35zM48-53c0 20 12 33 32 33 41-3 63-29 60-74-43 2-92-5-92 41" id="z"/><path d="M117-194c89-4 53 116 60 194h-32v-121c0-31-8-49-39-48C34-167 62-67 57 0H25l-1-190h30c1 10-1 24 2 32 11-22 29-35 61-36" id="A"/><path d="M85-194c31 0 48 13 60 33l-1-100h32l1 261h-30c-2-10 0-23-3-31C134-8 116 4 85 4 32 4 16-35 15-94c0-66 23-100 70-100zm9 24c-40 0-46 34-46 75 0 40 6 74 45 74 42 0 51-32 51-76 0-42-9-74-50-73" id="B"/><g id="a"><use transform="matrix(0.05,0,0,0.05,0,0)" xlink:href="#w"/><use transform="matrix(0.05,0,0,0.05,12.950000000000001,0)" xlink:href="#x"/><use transform="matrix(0.05,0,0,0.05,22.950000000000003,0)" xlink:href="#y"/><use transform="matrix(0.05,0,0,0.05,37.900000000000006,0)" xlink:href="#y"/><use transform="matrix(0.05,0,0,0.05,52.85,0)" xlink:href="#z"/><use transform="matrix(0.05,0,0,0.05,62.85,0)" xlink:href="#A"/><use transform="matrix(0.05,0,0,0.05,72.85000000000001,0)" xlink:href="#B"/></g><path d="M27 0v-27h64v-190l-56 39v-29l58-41h29v221h61V0H27" id="C"/><use transform="matrix(0.05,0,0,0.05,0,0)" xlink:href="#C" id="b"/><path d="M100-194c63 0 86 42 84 106H49c0 40 14 67 53 68 26 1 43-12 49-29l28 8c-11 28-37 45-77 45C44 4 14-33 15-96c1-61 26-98 85-98zm52 81c6-60-76-77-97-28-3 7-6 17-6 28h103" id="D"/><path d="M141 0L90-78 38 0H4l68-98-65-92h35l48 74 47-74h35l-64 92 68 98h-35" id="E"/><path d="M96-169c-40 0-48 33-48 73s9 75 48 75c24 0 41-14 43-38l32 2c-6 37-31 61-74 61-59 0-76-41-82-99-10-93 101-131 147-64 4 7 5 14 7 22l-32 3c-4-21-16-35-41-35" id="F"/><path d="M84 4C-5 8 30-112 23-190h32v120c0 31 7 50 39 49 72-2 45-101 50-169h31l1 190h-30c-1-10 1-25-2-33-11 22-28 36-60 37" id="G"/><path d="M59-47c-2 24 18 29 38 22v24C64 9 27 4 27-40v-127H5v-23h24l9-43h21v43h35v23H59v120" id="H"/><g id="c"><use transform="matrix(0.05,0,0,0.05,0,0)" xlink:href="#D"/><use transform="matrix(0.05,0,0,0.05,10,0)" xlink:href="#E"/><use transform="matrix(0.05,0,0,0.05,19,0)" xlink:href="#D"/><use transform="matrix(0.05,0,0,0.05,29,0)" xlink:href="#F"/><use transform="matrix(0.05,0,0,0.05,38,0)" xlink:href="#G"/><use transform="matrix(0.05,0,0,0.05,48,0)" xlink:href="#H"/><use transform="matrix(0.05,0,0,0.05,53,0)" xlink:href="#D"/><use transform="matrix(0.05,0,0,0.05,63,0)" xlink:href="#B"/></g><path d="M190 0L58-211 59 0H30v-248h39L202-35l-2-213h31V0h-41" id="I"/><path d="M16-82v-28h88v28H16" id="J"/><path d="M205 0l-28-72H64L36 0H1l101-248h38L239 0h-34zm-38-99l-47-123c-12 45-31 82-46 123h93" id="K"/><path d="M33 0v-248h34V0H33" id="L"/><g id="d"><use transform="matrix(0.05,0,0,0.05,0,0)" xlink:href="#I"/><use transform="matrix(0.05,0,0,0.05,12.950000000000001,0)" xlink:href="#x"/><use transform="matrix(0.05,0,0,0.05,22.950000000000003,0)" xlink:href="#A"/><use transform="matrix(0.05,0,0,0.05,32.95,0)" xlink:href="#J"/><use transform="matrix(0.05,0,0,0.05,38.900000000000006,0)" xlink:href="#K"/><use transform="matrix(0.05,0,0,0.05,50.900000000000006,0)" xlink:href="#L"/></g><path d="M135-143c-3-34-86-38-87 0 15 53 115 12 119 90S17 21 10-45l28-5c4 36 97 45 98 0-10-56-113-15-118-90-4-57 82-63 122-42 12 7 21 19 24 35" id="M"/><g id="e"><use transform="matrix(0.05,0,0,0.05,0,0)" xlink:href="#G"/><use transform="matrix(0.05,0,0,0.05,10,0)" xlink:href="#M"/><use transform="matrix(0.05,0,0,0.05,19,0)" xlink:href="#D"/></g><path d="M24 0v-248h195v40H76v63h132v40H76v65h150V0H24" id="N"/><path d="M175 0L67-191c6 58 2 128 3 191H24v-248h59L193-55c-6-58-2-129-3-193h46V0h-61" id="O"/><path d="M24-248c120-7 223 5 221 122C244-46 201 0 124 0H24v-248zM76-40c74 7 117-18 117-86 0-67-45-88-117-82v168" id="P"/><g id="f"><use transform="matrix(0.05,0,0,0.05,0,0)" xlink:href="#N"/><use transform="matrix(0.05,0,0,0.05,12,0)" xlink:href="#O"/><use transform="matrix(0.05,0,0,0.05,24.950000000000003,0)" xlink:href="#P"/></g><g id="g"><use transform="matrix(0.05,0,0,0.05,0,0)" xlink:href="#K"/><use transform="matrix(0.05,0,0,0.05,12,0)" xlink:href="#L"/></g><path d="M30-248c87 1 191-15 191 75 0 78-77 80-158 76V0H30v-248zm33 125c57 0 124 11 124-50 0-59-68-47-124-48v98" id="Q"/><path d="M233-177c-1 41-23 64-60 70L243 0h-38l-65-103H63V0H30v-248c88 3 205-21 203 71zM63-129c60-2 137 13 137-47 0-61-80-42-137-45v92" id="R"/><path d="M140-251c81 0 123 46 123 126C263-46 219 4 140 4 59 4 17-45 17-125s42-126 123-126zm0 227c63 0 89-41 89-101s-29-99-89-99c-61 0-89 39-89 99S79-25 140-24" id="S"/><path d="M240 0l2-218c-23 76-54 145-80 218h-23L58-218 59 0H30v-248h44l77 211c21-75 51-140 76-211h43V0h-30" id="T"/><path d="M127-220V0H93v-220H8v-28h204v28h-85" id="U"/><g id="h"><use transform="matrix(0.05,0,0,0.05,0,0)" xlink:href="#Q"/><use transform="matrix(0.05,0,0,0.05,12,0)" xlink:href="#R"/><use transform="matrix(0.05,0,0,0.05,24.950000000000003,0)" xlink:href="#S"/><use transform="matrix(0.05,0,0,0.05,38.95,0)" xlink:href="#T"/><use transform="matrix(0.05,0,0,0.05,53.900000000000006,0)" xlink:href="#Q"/><use transform="matrix(0.05,0,0,0.05,65.9,0)" xlink:href="#U"/></g><path d="M169-182c-1-43-94-46-97-3 18 66 151 10 154 114 3 95-165 93-204 36-6-8-10-19-12-30l50-8c3 46 112 56 116 5-17-69-150-10-154-114-4-87 153-88 188-35 5 8 8 18 10 28" id="V"/><path d="M199 0l-22-63H83L61 0H9l90-248h61L250 0h-51zm-33-102l-36-108c-10 38-24 72-36 108h72" id="W"/><path d="M136-208V0H84v-208H4v-40h212v40h-80" id="X"/><path d="M67-125c0 53 21 87 73 88 37 1 54-22 65-47l45 17C233-25 199 4 140 4 58 4 20-42 15-125 8-235 124-281 211-232c18 10 29 29 36 50l-46 12c-8-25-30-41-62-41-52 0-71 34-72 86" id="Y"/><path d="M186 0v-106H76V0H24v-248h52v99h110v-99h50V0h-50" id="Z"/><g id="i"><use transform="matrix(0.05555555555555555,0,0,0.05555555555555555,0,0)" xlink:href="#V"/><use transform="matrix(0.05555555555555555,0,0,0.05555555555555555,13.333333333333332,0)" xlink:href="#O"/><use transform="matrix(0.05555555555555555,0,0,0.05555555555555555,27.72222222222222,0)" xlink:href="#W"/><use transform="matrix(0.05555555555555555,0,0,0.05555555555555555,40.61111111111111,0)" xlink:href="#X"/><use transform="matrix(0.05555555555555555,0,0,0.05555555555555555,52.77777777777777,0)" xlink:href="#Y"/><use transform="matrix(0.05555555555555555,0,0,0.05555555555555555,67.16666666666666,0)" xlink:href="#Z"/></g><path d="M101-251c82-7 93 87 43 132L82-64C71-53 59-42 53-27h129V0H18c2-99 128-94 128-182 0-28-16-43-45-43s-46 15-49 41l-32-3c6-41 34-60 81-64" id="aa"/><use transform="matrix(0.05,0,0,0.05,0,0)" xlink:href="#aa" id="j"/><path d="M185-189c-5-48-123-54-124 2 14 75 158 14 163 119 3 78-121 87-175 55-17-10-28-26-33-46l33-7c5 56 141 63 141-1 0-78-155-14-162-118-5-82 145-84 179-34 5 7 8 16 11 25" id="ab"/><g id="k"><use transform="matrix(0.05,0,0,0.05,0,0)" xlink:href="#S"/><use transform="matrix(0.05,0,0,0.05,14,0)" xlink:href="#ab"/><use transform="matrix(0.05,0,0,0.05,26,0)" xlink:href="#L"/><use transform="matrix(0.05,0,0,0.05,31,0)" xlink:href="#I"/><use transform="matrix(0.05,0,0,0.05,43.95,0)" xlink:href="#U"/></g><path d="M114-163C36-179 61-72 57 0H25l-1-190h30c1 12-1 29 2 39 6-27 23-49 58-41v29" id="ac"/><path d="M24 0v-261h32V0H24" id="ad"/><g id="l"><use transform="matrix(0.05,0,0,0.05,0,0)" xlink:href="#I"/><use transform="matrix(0.05,0,0,0.05,12.950000000000001,0)" xlink:href="#D"/><use transform="matrix(0.05,0,0,0.05,22.950000000000003,0)" xlink:href="#G"/><use transform="matrix(0.05,0,0,0.05,32.95,0)" xlink:href="#ac"/><use transform="matrix(0.05,0,0,0.05,38.900000000000006,0)" xlink:href="#z"/><use transform="matrix(0.05,0,0,0.05,48.900000000000006,0)" xlink:href="#ad"/></g><path d="M206 0h-36l-40-164L89 0H53L-1-190h32L70-26l43-164h34l41 164 42-164h31" id="ae"/><path d="M143 0L79-87 56-68V0H24v-261h32v163l83-92h37l-77 82L181 0h-38" id="af"/><g id="m"><use transform="matrix(0.05,0,0,0.05,0,0)" xlink:href="#I"/><use transform="matrix(0.05,0,0,0.05,12.950000000000001,0)" xlink:href="#D"/><use transform="matrix(0.05,0,0,0.05,22.950000000000003,0)" xlink:href="#H"/><use transform="matrix(0.05,0,0,0.05,27.950000000000003,0)" xlink:href="#ae"/><use transform="matrix(0.05,0,0,0.05,40.900000000000006,0)" xlink:href="#x"/><use transform="matrix(0.05,0,0,0.05,50.900000000000006,0)" xlink:href="#ac"/><use transform="matrix(0.05,0,0,0.05,56.85,0)" xlink:href="#af"/></g><path d="M24-231v-30h32v30H24zM24 0v-190h32V0H24" id="ag"/><g id="n"><use transform="matrix(0.05,0,0,0.05,0,0)" xlink:href="#K"/><use transform="matrix(0.05,0,0,0.05,12,0)" xlink:href="#G"/><use transform="matrix(0.05,0,0,0.05,22,0)" xlink:href="#H"/><use transform="matrix(0.05,0,0,0.05,27,0)" xlink:href="#x"/><use transform="matrix(0.05,0,0,0.05,37,0)" xlink:href="#y"/><use transform="matrix(0.05,0,0,0.05,51.95,0)" xlink:href="#z"/><use transform="matrix(0.05,0,0,0.05,61.95,0)" xlink:href="#H"/><use transform="matrix(0.05,0,0,0.05,66.95,0)" xlink:href="#ag"/><use transform="matrix(0.05,0,0,0.05,70.9,0)" xlink:href="#x"/><use transform="matrix(0.05,0,0,0.05,80.9,0)" xlink:href="#A"/></g><path d="M24-248c93 1 206-16 204 79-1 75-69 88-152 82V0H24v-248zm52 121c47 0 100 7 100-41 0-47-54-39-100-39v80" id="ah"/><path d="M133-34C117-15 103 5 69 4 32 3 11-16 11-54c-1-60 55-63 116-61 1-26-3-47-28-47-18 1-26 9-28 27l-52-2c7-38 36-58 82-57s74 22 75 68l1 82c-1 14 12 18 25 15v27c-30 8-71 5-69-32zm-48 3c29 0 43-24 42-57-32 0-66-3-65 30 0 17 8 27 23 27" id="ai"/><path d="M115-3C79 11 28 4 28-45v-112H4v-33h27l15-45h31v45h36v33H77v99c-1 23 16 31 38 25v30" id="aj"/><path d="M185-48c-13 30-37 53-82 52C43 2 14-33 14-96s30-98 90-98c62 0 83 45 84 108H66c0 31 8 55 39 56 18 0 30-7 34-22zm-45-69c5-46-57-63-70-21-2 6-4 13-4 21h74" id="ak"/><path d="M135-150c-39-12-60 13-60 57V0H25l-1-190h47c2 13-1 29 3 40 6-28 27-53 61-41v41" id="al"/><path d="M135-194c87-1 58 113 63 194h-50c-7-57 23-157-34-157-59 0-34 97-39 157H25l-1-190h47c2 12-1 28 3 38 12-26 28-41 61-42" id="am"/><g id="o"><use transform="matrix(0.05555555555555555,0,0,0.05555555555555555,0,0)" xlink:href="#ah"/><use transform="matrix(0.05555555555555555,0,0,0.05555555555555555,13.333333333333332,0)" xlink:href="#ai"/><use transform="matrix(0.05555555555555555,0,0,0.05555555555555555,24.444444444444443,0)" xlink:href="#aj"/><use transform="matrix(0.05555555555555555,0,0,0.05555555555555555,31.055555555555554,0)" xlink:href="#aj"/><use transform="matrix(0.05555555555555555,0,0,0.05555555555555555,37.666666666666664,0)" xlink:href="#ak"/><use transform="matrix(0.05555555555555555,0,0,0.05555555555555555,48.77777777777777,0)" xlink:href="#al"/><use transform="matrix(0.05555555555555555,0,0,0.05555555555555555,56.55555555555555,0)" xlink:href="#am"/></g><path d="M137-138c1-29-70-34-71-4 15 46 118 7 119 86 1 83-164 76-172 9l43-7c4 19 20 25 44 25 33 8 57-30 24-41C81-84 22-81 20-136c-2-80 154-74 161-7" id="an"/><path d="M190-63c-7 42-38 67-86 67-59 0-84-38-90-98-12-110 154-137 174-36l-49 2c-2-19-15-32-35-32-30 0-35 28-38 64-6 74 65 87 74 30" id="ao"/><path d="M114-157C55-157 80-60 75 0H25v-261h50l-1 109c12-26 28-41 61-42 86-1 58 113 63 194h-50c-7-57 23-157-34-157" id="ap"/><g id="p"><use transform="matrix(0.05555555555555555,0,0,0.05555555555555555,0,0)" xlink:href="#an"/><use transform="matrix(0.05555555555555555,0,0,0.05555555555555555,11.11111111111111,0)" xlink:href="#ak"/><use transform="matrix(0.05555555555555555,0,0,0.05555555555555555,22.22222222222222,0)" xlink:href="#ai"/><use transform="matrix(0.05555555555555555,0,0,0.05555555555555555,33.33333333333333,0)" xlink:href="#al"/><use transform="matrix(0.05555555555555555,0,0,0.05555555555555555,41.11111111111111,0)" xlink:href="#ao"/><use transform="matrix(0.05555555555555555,0,0,0.05555555555555555,52.222222222222214,0)" xlink:href="#ap"/></g><path d="M30 0v-248h187v28H63v79h144v27H63v87h162V0H30" id="aq"/><path d="M108 0H70L1-190h34L89-25l56-165h34" id="ar"/><g id="q"><use transform="matrix(0.05,0,0,0.05,0,0)" xlink:href="#aq"/><use transform="matrix(0.05,0,0,0.05,12,0)" xlink:href="#E"/><use transform="matrix(0.05,0,0,0.05,21,0)" xlink:href="#z"/><use transform="matrix(0.05,0,0,0.05,31,0)" xlink:href="#G"/><use transform="matrix(0.05,0,0,0.05,41,0)" xlink:href="#F"/><use transform="matrix(0.05,0,0,0.05,50,0)" xlink:href="#H"/><use transform="matrix(0.05,0,0,0.05,55,0)" xlink:href="#ag"/><use transform="matrix(0.05,0,0,0.05,58.95,0)" xlink:href="#ar"/><use transform="matrix(0.05,0,0,0.05,67.95,0)" xlink:href="#D"/></g><path d="M106-169C34-169 62-67 57 0H25v-261h32l-1 103c12-21 28-36 61-36 89 0 53 116 60 194h-32v-121c2-32-8-49-39-48" id="as"/><g id="r"><use transform="matrix(0.05,0,0,0.05,0,0)" xlink:href="#M"/><use transform="matrix(0.05,0,0,0.05,9,0)" xlink:href="#D"/><use transform="matrix(0.05,0,0,0.05,19,0)" xlink:href="#z"/><use transform="matrix(0.05,0,0,0.05,29,0)" xlink:href="#ac"/><use transform="matrix(0.05,0,0,0.05,34.95,0)" xlink:href="#F"/><use transform="matrix(0.05,0,0,0.05,43.95,0)" xlink:href="#as"/></g><g id="s"><use transform="matrix(0.05555555555555555,0,0,0.05555555555555555,0,0)" xlink:href="#P"/><use transform="matrix(0.05555555555555555,0,0,0.05555555555555555,14.388888888888888,0)" xlink:href="#ai"/><use transform="matrix(0.05555555555555555,0,0,0.05555555555555555,25.5,0)" xlink:href="#aj"/><use transform="matrix(0.05555555555555555,0,0,0.05555555555555555,32.111111111111114,0)" xlink:href="#ai"/></g><path d="M110-194c64 0 96 36 96 99 0 64-35 99-97 99-61 0-95-36-95-99 0-62 34-99 96-99zm-1 164c35 0 45-28 45-65 0-40-10-65-43-65-34 0-45 26-45 65 0 36 10 65 43 65" id="at"/><path d="M25 0v-261h50V0H25" id="au"/><path d="M25-224v-37h50v37H25zM25 0v-190h50V0H25" id="av"/><g id="t"><use transform="matrix(0.05555555555555555,0,0,0.05555555555555555,0,0)" xlink:href="#ao"/><use transform="matrix(0.05555555555555555,0,0,0.05555555555555555,11.11111111111111,0)" xlink:href="#at"/><use transform="matrix(0.05555555555555555,0,0,0.05555555555555555,23.27777777777778,0)" xlink:href="#au"/><use transform="matrix(0.05555555555555555,0,0,0.05555555555555555,28.83333333333334,0)" xlink:href="#au"/><use transform="matrix(0.05555555555555555,0,0,0.05555555555555555,34.38888888888889,0)" xlink:href="#ak"/><use transform="matrix(0.05555555555555555,0,0,0.05555555555555555,45.5,0)" xlink:href="#ao"/><use transform="matrix(0.05555555555555555,0,0,0.05555555555555555,56.611111111111114,0)" xlink:href="#aj"/><use transform="matrix(0.05555555555555555,0,0,0.05555555555555555,63.22222222222223,0)" xlink:href="#av"/><use transform="matrix(0.05555555555555555,0,0,0.05555555555555555,68.77777777777779,0)" xlink:href="#at"/><use transform="matrix(0.05555555555555555,0,0,0.05555555555555555,80.94444444444446,0)" xlink:href="#am"/></g><path d="M88-194c31-1 46 15 58 34l-1-101h50l1 261h-48c-2-10 0-23-3-31C134-8 116 4 84 4 32 4 16-41 15-95c0-56 19-97 73-99zm17 164c33 0 40-30 41-66 1-37-9-64-41-64s-38 30-39 65c0 43 13 65 39 65" id="aw"/><g id="u"><use transform="matrix(0.05555555555555555,0,0,0.05555555555555555,0,0)" xlink:href="#ai"/><use transform="matrix(0.05555555555555555,0,0,0.05555555555555555,11.11111111111111,0)" xlink:href="#am"/><use transform="matrix(0.05555555555555555,0,0,0.05555555555555555,23.27777777777778,0)" xlink:href="#aw"/></g><path d="M85 4C-2 5 27-109 22-190h50c7 57-23 150 33 157 60-5 35-97 40-157h50l1 190h-47c-2-12 1-28-3-38-12 25-28 42-61 42" id="ax"/><path d="M195-6C206 82 75 100 31 46c-4-6-6-13-8-21l49-6c3 16 16 24 34 25 40 0 42-37 40-79-11 22-30 35-61 35-53 0-70-43-70-97 0-56 18-96 73-97 30 0 46 14 59 34l2-30h47zm-90-29c32 0 41-27 41-63 0-35-9-62-40-62-32 0-39 29-40 63 0 36 9 62 39 62" id="ay"/><g id="v"><use transform="matrix(0.05555555555555555,0,0,0.05555555555555555,0,0)" xlink:href="#an"/><use transform="matrix(0.05555555555555555,0,0,0.05555555555555555,11.11111111111111,0)" xlink:href="#aj"/><use transform="matrix(0.05555555555555555,0,0,0.05555555555555555,17.72222222222222,0)" xlink:href="#al"/><use transform="matrix(0.05555555555555555,0,0,0.05555555555555555,25.5,0)" xlink:href="#ax"/><use transform="matrix(0.05555555555555555,0,0,0.05555555555555555,37.666666666666664,0)" xlink:href="#ao"/><use transform="matrix(0.05555555555555555,0,0,0.05555555555555555,48.77777777777777,0)" xlink:href="#aj"/><use transform="matrix(0.05555555555555555,0,0,0.05555555555555555,55.388888888888886,0)" xlink:href="#ax"/><use transform="matrix(0.05555555555555555,0,0,0.05555555555555555,67.55555555555556,0)" xlink:href="#al"/><use transform="matrix(0.05555555555555555,0,0,0.05555555555555555,75.33333333333333,0)" xlink:href="#av"/><use transform="matrix(0.05555555555555555,0,0,0.05555555555555555,80.88888888888889,0)" xlink:href="#am"/><use transform="matrix(0.05555555555555555,0,0,0.05555555555555555,93.05555555555556,0)" xlink:href="#ay"/></g></defs></g></svg>